<svg width="44" height="44" viewBox="0 0 44 44" fill="none" xmlns="http://www.w3.org/2000/svg">
<g clip-path="url(#clip0_881_14166)">
<path d="M38.6631 0.0859032C36.7811 0.386684 34.2717 1.39215 31.5904 2.93044C30.5162 3.54059 30.5162 3.47184 31.6248 4.03903C31.9772 4.2195 32.5787 4.56325 32.9568 4.80387C33.3264 5.0445 33.6615 5.24216 33.6959 5.24216C33.7303 5.24216 34.0397 5.08747 34.392 4.907C34.7358 4.71794 35.4834 4.36559 36.0506 4.12497C38.5686 3.04216 40.1412 2.77575 40.6912 3.32575C41.4131 4.03903 40.8889 6.13591 39.1529 9.49607C38.6115 10.5359 37.1936 12.9937 36.9959 13.2172C36.9873 13.2258 36.7123 12.8476 36.3858 12.3578C33.6358 8.22419 29.2529 5.51716 24.2514 4.85544C23.1256 4.70934 20.9858 4.68356 19.9373 4.82106C16.1818 5.28513 12.8217 6.86638 10.1233 9.4445C8.53341 10.9656 7.49356 12.3578 6.56544 14.2054C5.32794 16.6719 4.82091 18.7 4.75216 21.5273C4.70059 23.4523 4.8295 24.664 5.27638 26.3828L5.55997 27.5086L5.04434 28.2562C2.05372 32.5703 0.22325 36.6094 0.0341878 39.325C-0.163468 42.1695 1.46934 43.9914 4.21934 44C6.39356 44 9.85685 42.6852 13.3889 40.5023C24.6725 33.5328 38.3022 19.0609 42.5733 9.50466C44.0772 6.1445 44.3779 3.66091 43.4756 1.96794C43.192 1.44372 42.5475 0.790592 42.0748 0.541374C41.224 0.103092 39.7889 -0.0945663 38.6631 0.0859032ZM7.69122 31.7539C8.91153 33.5672 10.5272 35.1742 12.3576 36.3859C12.8475 36.7125 13.2256 36.9875 13.217 36.9961C13.1998 37.0047 12.8045 37.2539 12.3318 37.5547C8.75685 39.7891 5.35372 41.1727 3.92716 40.9578C2.47481 40.743 2.74981 38.7062 4.76934 34.7187C5.49981 33.2836 6.94356 30.8344 7.04669 30.8687C7.08106 30.8859 7.37325 31.2812 7.69122 31.7539Z" fill="#5A2BBF"/>
<path d="M38.3106 21.8281C33.7817 27.543 27.7317 33.6016 21.9396 38.2164L20.6333 39.2563L21.3466 39.3164C22.8935 39.4453 25.6349 39.0586 27.4825 38.4484C28.6169 38.0789 30.5677 37.1336 31.5388 36.4805C35.4231 33.8766 38.0614 29.975 38.9724 25.4977C39.2388 24.1828 39.4021 22.086 39.2989 21.2695L39.2302 20.668L38.3106 21.8281Z" fill="#5A2BBF"/>
</g>
<defs>
<clipPath id="clip0_881_14166">
<rect width="44" height="44" fill="white"/>
</clipPath>
</defs>
</svg>
