<svg width="735" height="493" viewBox="0 0 735 493" fill="none" xmlns="http://www.w3.org/2000/svg">
<g clip-path="url(#clip0_826_104)">
<g opacity="0.2">
<path d="M254.431 453.207C254.8 454.72 255.291 456.201 255.898 457.636C265.34 453.927 274.887 450.372 284.537 446.971C284.456 446.57 284.374 446.149 284.273 445.734C283.3 441.461 281.225 437.517 278.254 434.295C274.396 430.219 269.423 428.249 264.586 429.452C259.75 430.654 256.238 434.771 254.635 440.185C253.436 444.434 253.366 448.922 254.431 453.207Z" fill="#3F3D56"/>
<path d="M267.998 445.103C276.287 443.252 280.999 432.76 278.522 421.67C276.045 410.579 267.317 403.089 259.028 404.941C250.738 406.792 246.026 417.284 248.503 428.374C250.98 439.465 259.708 446.955 267.998 445.103Z" fill="#3F3D56"/>
<path d="M262.181 420.638C270.47 418.786 275.182 408.295 272.705 397.204C270.228 386.114 261.5 378.624 253.211 380.475C244.921 382.327 240.209 392.818 242.686 403.909C245.163 414.999 253.891 422.489 262.181 420.638Z" fill="#3F3D56"/>
<path d="M256.352 396.187C264.641 394.336 269.353 383.844 266.876 372.754C264.399 361.663 255.671 354.173 247.382 356.025C239.092 357.876 234.38 368.368 236.857 379.458C239.334 390.549 248.062 398.038 256.352 396.187Z" fill="#3F3D56"/>
<path d="M250.523 371.729C258.813 369.878 263.525 359.386 261.048 348.296C258.571 337.205 249.843 329.716 241.553 331.567C233.264 333.418 228.552 343.91 231.029 355.001C233.506 366.091 242.234 373.581 250.523 371.729Z" fill="#3F3D56"/>
<path d="M262.032 170.293C263.446 167.122 264.639 163.859 265.605 160.525L224.848 163.731L267.331 153.453C269.361 142.769 269.104 131.777 266.577 121.2C264.361 111.836 260.39 102.978 254.872 95.0946L205.148 139.555L248.195 86.9294C230.622 68.1672 204.041 59.2413 177.623 65.8712C138.149 75.7414 113.959 116.526 123.591 156.965C127.42 173.299 136.599 187.884 149.67 198.402C147.474 203.339 145.805 208.494 144.69 213.781L202.037 228.142L143.332 223.054C142.63 231.25 143.244 239.506 145.152 247.509C148.988 263.841 158.169 278.425 171.237 288.946C164.369 304.367 162.784 321.624 166.727 338.039C176.359 378.477 216.166 403.251 255.64 393.388C295.114 383.524 319.304 342.739 309.671 302.301C305.836 285.968 296.655 271.384 283.586 260.864C290.454 245.442 292.04 228.185 288.097 211.771C284.279 195.424 275.104 180.824 262.032 170.293Z" fill="#5A2BBF"/>
<path opacity="0.1" d="M145.166 247.481C149.002 263.814 158.182 278.398 171.251 288.919C164.383 304.34 162.797 321.597 166.74 338.011C176.373 378.45 216.18 403.224 255.654 393.361C295.128 383.497 319.317 342.712 309.685 302.274C305.849 285.941 296.669 271.357 283.6 260.836C290.216 245.987 143.21 239.282 145.166 247.481Z" fill="black"/>
</g>
<g opacity="0.2">
<path d="M437.631 445.741C437.383 447.51 437.286 449.296 437.339 451.081C449.181 451.271 461.069 451.669 473.002 452.276C473.083 451.808 473.165 451.332 473.233 450.85C474.002 445.869 473.427 440.773 471.568 436.089C469.109 430.097 464.524 425.811 458.784 424.982C453.044 424.153 447.447 426.979 443.405 432.02C440.292 435.998 438.299 440.735 437.631 445.741Z" fill="#3F3D56"/>
<path d="M477.354 422.39C479.204 409.519 472.732 397.939 462.899 396.526C453.066 395.112 443.595 404.4 441.744 417.271C439.894 430.142 446.366 441.722 456.199 443.136C466.032 444.549 475.504 435.261 477.354 422.39Z" fill="#3F3D56"/>
<path d="M481.446 393.904C483.297 381.033 476.825 369.453 466.992 368.04C457.158 366.626 447.687 375.915 445.837 388.785C443.987 401.656 450.458 413.236 460.292 414.65C470.125 416.063 479.596 406.775 481.446 393.904Z" fill="#3F3D56"/>
<path d="M485.538 365.425C487.388 352.554 480.916 340.974 471.083 339.561C461.25 338.147 451.779 347.435 449.928 360.306C448.078 373.177 454.55 384.757 464.383 386.17C474.217 387.584 483.688 378.296 485.538 365.425Z" fill="#3F3D56"/>
<path d="M489.637 336.94C491.487 324.069 485.016 312.489 475.182 311.075C465.349 309.662 455.878 318.95 454.028 331.821C452.177 344.692 458.649 356.272 468.482 357.685C478.316 359.099 487.787 349.811 489.637 336.94Z" fill="#3F3D56"/>
<path d="M566.466 149.017C569.346 146.265 572.029 143.314 574.496 140.186L528.826 125.84L579.359 133.482C585.728 123.619 590.019 112.562 591.968 100.984C593.918 89.4072 593.485 77.5541 590.697 66.1498L517.767 91.5827L586.974 54.561C582.566 43.5841 575.945 33.6326 567.524 25.3263C559.102 17.02 549.06 10.5369 538.023 6.2809C526.987 2.0249 515.192 0.0871576 503.374 0.58841C491.555 1.08966 479.967 4.01917 469.33 9.19441C458.694 14.3697 449.237 21.6798 441.549 30.6693C433.86 39.6589 428.106 50.1354 424.643 61.446C421.18 72.7567 420.084 84.6592 421.422 96.4121C422.76 108.165 426.504 119.516 432.42 129.759C427.946 134.034 423.945 138.778 420.485 143.909L476.67 184.178L415.051 153.147C408.569 165.931 405.377 180.13 405.763 194.458C406.15 208.786 410.103 222.791 417.265 235.207C405.564 246.363 397.238 260.586 393.239 276.251C389.241 291.916 389.731 308.39 394.654 323.79C399.577 339.189 408.733 352.893 421.077 363.333C433.421 373.774 448.454 380.531 464.456 382.831C480.459 385.131 496.786 382.881 511.571 376.339C526.355 369.797 539 359.227 548.061 345.837C557.121 332.447 562.231 316.778 562.806 300.621C563.38 284.464 559.397 268.471 551.311 254.472C565.295 241.139 574.392 223.493 577.141 204.367C579.889 185.242 576.13 165.749 566.466 149.017Z" fill="#5A2BBF"/>
<path opacity="0.1" d="M406.594 179.857C403.816 198.982 407.576 218.485 417.265 235.207C405.564 246.363 397.238 260.586 393.239 276.251C389.241 291.916 389.731 308.39 394.654 323.79C399.577 339.189 408.733 352.893 421.077 363.333C433.421 373.774 448.454 380.531 464.456 382.831C480.459 385.13 496.786 382.881 511.571 376.339C526.355 369.797 539 359.227 548.061 345.837C557.121 332.447 562.231 316.778 562.806 300.621C563.38 284.464 559.397 268.471 551.311 254.471C564.829 241.599 407.973 170.286 406.594 179.857Z" fill="black"/>
</g>
<path opacity="0.1" d="M367.5 493C570.465 493 735 483.572 735 471.942C735 460.312 570.465 450.884 367.5 450.884C164.535 450.884 0 460.312 0 471.942C0 483.572 164.535 493 367.5 493Z" fill="#5A2BBF"/>
<path d="M607.768 463.457C617.259 463.457 624.954 461.976 624.954 460.149C624.954 458.322 617.259 456.841 607.768 456.841C598.276 456.841 590.582 458.322 590.582 460.149C590.582 461.976 598.276 463.457 607.768 463.457Z" fill="#5A2BBF"/>
<path d="M607.482 461.372C608.589 461.372 609.486 460.198 609.486 458.75C609.486 457.302 608.589 456.128 607.482 456.128C606.375 456.128 605.478 457.302 605.478 458.75C605.478 460.198 606.375 461.372 607.482 461.372Z" fill="#3F3D56"/>
<path d="M607.482 458.166C608.589 458.166 609.486 456.992 609.486 455.544C609.486 454.096 608.589 452.922 607.482 452.922C606.375 452.922 605.478 454.096 605.478 455.544C605.478 456.992 606.375 458.166 607.482 458.166Z" fill="#3F3D56"/>
<path d="M607.482 454.966C608.589 454.966 609.486 453.792 609.486 452.344C609.486 450.896 608.589 449.722 607.482 449.722C606.375 449.722 605.478 450.896 605.478 452.344C605.478 453.792 606.375 454.966 607.482 454.966Z" fill="#3F3D56"/>
<path d="M607.482 451.766C608.589 451.766 609.486 450.592 609.486 449.144C609.486 447.696 608.589 446.522 607.482 446.522C606.375 446.522 605.478 447.696 605.478 449.144C605.478 450.592 606.375 451.766 607.482 451.766Z" fill="#3F3D56"/>
<path d="M607.482 448.56C608.589 448.56 609.486 447.386 609.486 445.938C609.486 444.49 608.589 443.316 607.482 443.316C606.375 443.316 605.478 444.49 605.478 445.938C605.478 447.386 606.375 448.56 607.482 448.56Z" fill="#3F3D56"/>
<path d="M607.482 445.361C608.589 445.361 609.486 444.187 609.486 442.739C609.486 441.291 608.589 440.117 607.482 440.117C606.375 440.117 605.478 441.291 605.478 442.739C605.478 444.187 606.375 445.361 607.482 445.361Z" fill="#3F3D56"/>
<path d="M607.482 442.161C608.589 442.161 609.486 440.987 609.486 439.539C609.486 438.091 608.589 436.917 607.482 436.917C606.375 436.917 605.478 438.091 605.478 439.539C605.478 440.987 606.375 442.161 607.482 442.161Z" fill="#3F3D56"/>
<path d="M614.968 417.632C615.244 417.283 615.493 416.916 615.716 416.531L610.458 415.669L616.144 415.709C616.688 414.522 616.985 413.237 617.017 411.931C617.048 410.625 616.814 409.327 616.327 408.115L608.698 412.075L615.736 406.899C615.079 405.753 614.193 404.756 613.133 403.969C612.073 403.181 610.862 402.621 609.576 402.324C608.29 402.026 606.956 401.998 605.658 402.239C604.36 402.481 603.126 402.988 602.033 403.729C600.94 404.47 600.012 405.428 599.306 406.545C598.601 407.661 598.134 408.91 597.934 410.215C597.733 411.521 597.805 412.853 598.144 414.129C598.482 415.405 599.081 416.598 599.902 417.632C599.477 418.174 599.11 418.759 598.808 419.378L605.601 422.924L598.326 420.478C597.816 421.992 597.693 423.609 597.968 425.182C598.244 426.755 598.908 428.235 599.902 429.486C598.789 430.899 598.098 432.598 597.905 434.386C597.713 436.174 598.027 437.981 598.813 439.599C599.599 441.217 600.824 442.581 602.349 443.536C603.874 444.49 605.636 444.996 607.435 444.996C609.234 444.996 610.996 444.49 612.521 443.536C614.046 442.581 615.271 441.217 616.057 439.599C616.843 437.981 617.157 436.174 616.965 434.386C616.772 432.598 616.08 430.899 614.968 429.486C616.297 427.797 617.02 425.711 617.02 423.562C617.02 421.413 616.297 419.327 614.968 417.639V417.632Z" fill="#5A2BBF"/>
<path opacity="0.1" d="M597.85 423.555C597.844 425.703 598.562 427.79 599.888 429.479C598.776 430.893 598.084 432.591 597.891 434.379C597.699 436.168 598.014 437.974 598.8 439.592C599.585 441.21 600.811 442.575 602.335 443.529C603.86 444.484 605.623 444.99 607.421 444.99C609.22 444.99 610.983 444.484 612.507 443.529C614.032 442.575 615.257 441.21 616.043 439.592C616.829 437.974 617.144 436.168 616.951 434.379C616.759 432.591 616.067 430.893 614.955 429.479C616.252 427.848 597.85 422.482 597.85 423.555Z" fill="black"/>
<path d="M213.096 490.066C225.776 490.066 236.056 488.089 236.056 485.65C236.056 483.212 225.776 481.235 213.096 481.235C200.415 481.235 190.135 483.212 190.135 485.65C190.135 488.089 200.415 490.066 213.096 490.066Z" fill="#5A2BBF"/>
<path d="M212.708 487.274C214.187 487.274 215.385 485.707 215.385 483.775C215.385 481.843 214.187 480.277 212.708 480.277C211.23 480.277 210.032 481.843 210.032 483.775C210.032 485.707 211.23 487.274 212.708 487.274Z" fill="#3F3D56"/>
<path d="M212.708 482.994C214.187 482.994 215.385 481.428 215.385 479.495C215.385 477.563 214.187 475.997 212.708 475.997C211.23 475.997 210.032 477.563 210.032 479.495C210.032 481.428 211.23 482.994 212.708 482.994Z" fill="#3F3D56"/>
<path d="M212.708 478.714C214.187 478.714 215.385 477.148 215.385 475.216C215.385 473.284 214.187 471.718 212.708 471.718C211.23 471.718 210.032 473.284 210.032 475.216C210.032 477.148 211.23 478.714 212.708 478.714Z" fill="#3F3D56"/>
<path d="M212.708 474.442C214.187 474.442 215.385 472.875 215.385 470.943C215.385 469.011 214.187 467.445 212.708 467.445C211.23 467.445 210.032 469.011 210.032 470.943C210.032 472.875 211.23 474.442 212.708 474.442Z" fill="#3F3D56"/>
<path d="M212.708 470.162C214.187 470.162 215.385 468.596 215.385 466.664C215.385 464.731 214.187 463.165 212.708 463.165C211.23 463.165 210.032 464.731 210.032 466.664C210.032 468.596 211.23 470.162 212.708 470.162Z" fill="#3F3D56"/>
<path d="M212.708 465.882C214.187 465.882 215.385 464.316 215.385 462.384C215.385 460.452 214.187 458.886 212.708 458.886C211.23 458.886 210.032 460.452 210.032 462.384C210.032 464.316 211.23 465.882 212.708 465.882Z" fill="#3F3D56"/>
<path d="M212.708 461.61C214.187 461.61 215.385 460.043 215.385 458.111C215.385 456.179 214.187 454.613 212.708 454.613C211.23 454.613 210.032 456.179 210.032 458.111C210.032 460.043 211.23 461.61 212.708 461.61Z" fill="#3F3D56"/>
<path d="M222.721 428.84C223.084 428.373 223.415 427.883 223.713 427.373L216.696 426.218L224.291 426.279C225.021 424.694 225.42 422.976 225.462 421.23C225.504 419.485 225.189 417.75 224.535 416.131L214.346 421.416L223.74 414.541C222.856 413.027 221.67 411.71 220.256 410.673C218.842 409.635 217.23 408.9 215.519 408.511C213.809 408.122 212.037 408.089 210.314 408.414C208.59 408.738 206.952 409.413 205.5 410.397C204.048 411.381 202.813 412.652 201.873 414.133C200.933 415.613 200.307 417.271 200.034 419.004C199.761 420.736 199.846 422.506 200.286 424.204C200.725 425.902 201.508 427.492 202.587 428.874C202.019 429.6 201.53 430.383 201.127 431.211L210.249 435.966L200.522 432.706C199.838 434.722 199.666 436.876 200.021 438.975C200.377 441.074 201.249 443.051 202.56 444.729C201.075 446.618 200.152 448.887 199.895 451.276C199.639 453.665 200.06 456.077 201.11 458.238C202.16 460.399 203.797 462.221 205.834 463.496C207.87 464.771 210.224 465.447 212.627 465.447C215.03 465.447 217.384 464.771 219.42 463.496C221.457 462.221 223.094 460.399 224.144 458.238C225.194 456.077 225.615 453.665 225.359 451.276C225.102 448.887 224.179 446.618 222.694 444.729C224.468 442.471 225.432 439.683 225.432 436.812C225.432 433.941 224.468 431.153 222.694 428.895L222.721 428.84Z" fill="#5A2BBF"/>
<path opacity="0.1" d="M199.849 436.754C199.841 439.625 200.798 442.414 202.566 444.675C201.082 446.564 200.158 448.833 199.902 451.221C199.646 453.61 200.067 456.023 201.117 458.184C202.167 460.345 203.804 462.167 205.84 463.442C207.877 464.717 210.231 465.393 212.634 465.393C215.036 465.393 217.39 464.717 219.427 463.442C221.464 462.167 223.101 460.345 224.151 458.184C225.201 456.023 225.622 453.61 225.365 451.221C225.109 448.833 224.186 446.564 222.701 444.675C224.433 442.494 199.849 435.321 199.849 436.754Z" fill="black"/>
<path d="M333.984 291.201C332.251 282.139 330.315 273.057 329.996 263.839C329.806 258.405 330.186 252.875 329.487 247.454C329.14 244.791 328.536 242.176 327.938 239.561L325.533 229.093C325.806 227.086 325.728 225.047 325.302 223.068C325.061 222.023 324.741 220.999 324.344 220.004C326.589 216.845 328.439 213.423 329.853 209.814C330.492 208.184 331.042 206.452 330.791 204.726C330.302 201.418 327.095 199.238 324.113 197.607C322.306 196.622 320.404 195.671 318.339 195.515C316.895 195.457 315.457 195.733 314.137 196.322C312.818 196.912 311.652 197.798 310.731 198.912C310.229 196.234 310.397 193.473 311.22 190.876C309.447 190.081 307.661 189.334 305.861 188.607C305.6 186.259 305.51 183.896 305.589 181.535C305.63 178.703 305.677 175.843 305.84 173.003C310.671 171.24 314.847 168.042 317.807 163.837C320.768 159.632 322.371 154.622 322.402 149.479C322.402 149.187 322.402 148.902 322.402 148.616C323.718 146.25 324.551 143.645 324.852 140.953C325.153 138.262 324.916 135.537 324.154 132.938C322.164 126.145 316.96 120.548 310.69 117.09C304.421 113.633 297.152 112.172 289.958 111.914C287.544 111.773 285.121 111.926 282.744 112.369C280.2 112.995 277.734 113.907 275.394 115.086C271.801 116.744 268.18 118.558 265.49 121.417C260.823 126.397 259.777 133.713 260.287 140.438C260.966 149.269 263.914 157.814 267.324 166.034C268.458 168.751 269.668 171.509 271.536 173.825C272.983 175.612 275.496 175.72 277.493 174.471C277.335 176.64 277.285 178.817 277.344 180.992C273.655 180.863 270.062 181.467 267.1 183.546C265.741 184.517 264.451 186.046 264.75 187.69C265.657 187.714 266.526 188.058 267.205 188.66C267.884 189.263 268.328 190.086 268.458 190.984C268.608 192.431 267.881 193.81 267.175 195.06C266.869 195.617 266.563 196.181 266.251 196.738C263.33 199.863 260.334 203.775 260.069 207.654C259.593 207.699 259.119 207.77 258.649 207.865C256 208.354 253.364 209.257 250.763 209.937L231.933 214.896L227.279 216.186L219.807 218.156C215.052 219.406 210.209 220.69 205.99 223.203C201.772 225.717 198.192 229.664 197.343 234.419C196.922 236.783 197.18 239.242 196.664 241.585C196.664 241.694 196.623 241.796 196.596 241.898C196.164 243.381 195.584 244.817 194.863 246.184C190.645 255.076 187.642 264.77 188.206 274.558C188.553 280.57 190.244 286.432 191.888 292.22C193.613 298.139 195.316 304.058 196.996 309.977C198.104 314.214 199.509 318.368 201.201 322.408C204.1 328.879 208.399 334.627 213.789 339.234C215.301 340.591 216.992 341.734 218.815 342.631C221.595 343.833 224.629 344.325 227.646 344.064C228.461 344.01 229.263 343.921 230.058 343.792C235.893 342.868 241.334 340.056 246.327 336.891C248.415 335.568 250.453 334.176 252.441 332.713C252.693 334.995 253.148 337.25 253.799 339.452C254.241 340.966 254.784 342.522 254.608 344.091C254.363 346.279 252.773 348.072 251.952 350.123C250.206 354.457 251.999 359.287 252.291 363.934C252.57 368.288 251.51 372.608 250.661 376.895C249.243 384.043 248.405 391.294 248.154 398.578C248.147 401.335 247.965 404.09 247.611 406.824C246.979 410.683 245.498 414.405 245.24 418.305C244.846 424.377 247.468 430.321 247.23 436.401C246.952 443.54 242.761 450.476 244.221 457.459C244.405 458.336 244.9 459.348 245.702 459.572L245.308 459.932C244.106 461.046 242.937 463.104 244.303 464.008C244.617 464.194 244.966 464.315 245.328 464.361C247.441 464.802 249.567 465.203 251.693 465.577C251.647 467.541 251.894 469.501 252.427 471.392C252.814 471.67 253.208 471.921 253.602 472.159C253.303 472.961 253.324 473.735 254.03 474.197C254.344 474.384 254.693 474.504 255.056 474.55C272.554 478.161 290.425 479.643 308.279 478.966C311.472 478.844 314.807 478.613 317.531 476.982C320.255 475.352 322.096 471.881 320.798 469.021C319.65 466.494 316.648 465.4 313.951 464.558L310.786 463.58C311.191 462.861 311.428 462.059 311.477 461.235C311.526 460.411 311.387 459.587 311.071 458.825C309.923 456.298 306.92 455.204 304.224 454.362L296.935 452.1C295.975 451.872 295.073 451.449 294.285 450.856C293.763 450.337 293.282 449.778 292.845 449.185C291.794 447.983 290.412 447.116 288.871 446.692C288.789 445.148 288.823 443.599 288.973 442.06L291.011 417.462C291.466 411.892 291.915 406.213 290.617 400.772C290.094 398.564 289.259 396.302 289.768 394.088C290.563 390.474 294.367 388.463 296.962 385.78C300.875 381.704 302.091 375.91 302.987 370.394C306.7 347.631 307.867 324.526 306.465 301.506C314.62 299.207 323.013 297.858 331.477 297.485C332.917 297.423 333.623 296.744 334.072 295.399C334.52 294.054 334.248 292.594 333.984 291.201ZM293.328 292.403C293.375 292.166 293.429 291.928 293.47 291.69L294.034 292.41L293.328 292.403Z" fill="url(#paint0_linear_826_104)"/>
<path d="M280.081 167.718C279.905 170.082 279.069 172.351 278.763 174.708C278.417 177.303 278.723 179.946 278.553 182.561C278.383 185.176 277.629 187.927 275.639 189.633C287.207 190.634 298.601 193.1 309.549 196.969C306.241 192.893 306.153 187.201 306.234 181.97C306.343 174.233 306.479 166.346 309.006 159.044C301.469 157.359 293.664 157.257 286.086 158.745C284.442 159.071 279.463 158.867 278.723 160.402C278.186 161.53 280.203 166.007 280.081 167.718Z" fill="#A1616A"/>
<path opacity="0.1" d="M280.081 167.718C279.905 170.082 279.069 172.351 278.763 174.708C278.417 177.303 278.723 179.946 278.553 182.561C278.383 185.176 277.629 187.927 275.639 189.633C287.207 190.634 298.601 193.1 309.549 196.969C306.241 192.893 306.153 187.201 306.234 181.97C306.343 174.233 306.479 166.346 309.006 159.044C301.469 157.359 293.664 157.257 286.086 158.745C284.442 159.071 279.463 158.867 278.723 160.402C278.186 161.53 280.203 166.007 280.081 167.718Z" fill="black"/>
<path d="M293.776 449.219C294.184 449.822 294.638 450.392 295.134 450.924C295.899 451.517 296.782 451.941 297.723 452.168L304.842 454.43C307.484 455.272 310.419 456.359 311.539 458.886C312.803 461.739 311.003 465.21 308.34 466.834C305.677 468.457 302.417 468.695 299.299 468.817C281.841 469.49 264.367 468.009 247.271 464.408C246.918 464.357 246.579 464.237 246.273 464.055C244.914 463.138 246.076 461.087 247.251 459.979C251.836 455.632 256.822 451.074 263.065 450.069C266.346 449.532 269.64 449.749 272.901 448.968C275.245 448.404 277.459 447.433 279.796 446.855C284.15 445.789 290.665 445.409 293.776 449.219Z" fill="#46455B"/>
<path opacity="0.1" d="M293.776 449.219C294.184 449.822 294.638 450.392 295.134 450.924C295.899 451.517 296.782 451.941 297.723 452.168L304.842 454.43C307.484 455.272 310.419 456.359 311.539 458.886C312.803 461.739 311.003 465.21 308.34 466.834C305.677 468.457 302.417 468.695 299.299 468.817C281.841 469.49 264.367 468.009 247.271 464.408C246.918 464.357 246.579 464.237 246.273 464.055C244.914 463.138 246.076 461.087 247.251 459.979C251.836 455.632 256.822 451.074 263.065 450.069C266.346 449.532 269.64 449.749 272.901 448.968C275.245 448.404 277.459 447.433 279.796 446.855C284.15 445.789 290.665 445.409 293.776 449.219Z" fill="black"/>
<path d="M258.031 295.576C254.518 304.846 254.302 315.042 257.42 324.453C255.049 324.195 254.023 327.401 254.084 329.792C254.169 333.121 254.673 336.426 255.586 339.628C256.02 341.15 256.55 342.699 256.38 344.261C256.136 346.448 254.587 348.242 253.779 350.286C252.08 354.614 253.826 359.437 254.118 364.076C254.39 368.43 253.351 372.744 252.515 377.024C251.131 384.164 250.313 391.403 250.07 398.673C250.065 401.428 249.886 404.18 249.533 406.913C248.922 410.771 247.495 414.487 247.224 418.379C246.836 424.439 249.397 430.382 249.166 436.455C248.895 443.581 244.792 450.51 246.225 457.514C246.429 458.499 246.979 459.66 247.991 459.674C258.235 459.803 267.806 456.957 277.941 458.444C278.974 434.995 279.979 411.437 284.598 388.415C288.674 367.921 295.583 347.658 294.937 326.762C294.564 314.813 291.724 303.096 289.999 291.262C279.169 288.858 267.837 290.387 258.031 295.576Z" fill="#BBBDC8"/>
<path opacity="0.1" d="M258.031 295.576C254.518 304.846 254.302 315.042 257.42 324.453C255.049 324.195 254.023 327.401 254.084 329.792C254.169 333.121 254.673 336.426 255.586 339.628C256.02 341.15 256.55 342.699 256.38 344.261C256.136 346.448 254.587 348.242 253.779 350.286C252.08 354.614 253.826 359.437 254.118 364.076C254.39 368.43 253.351 372.744 252.515 377.024C251.131 384.164 250.313 391.403 250.07 398.673C250.065 401.428 249.886 404.18 249.533 406.913C248.922 410.771 247.495 414.487 247.224 418.379C246.836 424.439 249.397 430.382 249.166 436.455C248.895 443.581 244.792 450.51 246.225 457.514C246.429 458.499 246.979 459.66 247.991 459.674C258.235 459.803 267.806 456.957 277.941 458.444C278.974 434.995 279.979 411.437 284.598 388.415C288.674 367.921 295.583 347.658 294.937 326.762C294.564 314.813 291.724 303.096 289.999 291.262C279.169 288.858 267.837 290.387 258.031 295.576Z" fill="black"/>
<path d="M303.286 459.409C303.694 460.011 304.148 460.581 304.645 461.114C305.41 461.707 306.292 462.131 307.233 462.357L314.352 464.619C316.994 465.461 319.929 466.548 321.05 469.075C322.313 471.928 320.513 475.399 317.85 477.023C315.187 478.646 311.927 478.884 308.809 479.007C291.351 479.679 273.877 478.198 256.781 474.598C256.428 474.547 256.089 474.427 255.783 474.245C254.424 473.328 255.586 471.276 256.761 470.169C261.346 465.821 266.332 461.263 272.575 460.258C275.856 459.721 279.151 459.939 282.411 459.157C284.755 458.594 286.969 457.622 289.306 457.045C293.66 455.978 300.175 455.598 303.286 459.409Z" fill="#46455B"/>
<path d="M261.563 296.248C258.941 299.645 258.167 304.128 258.52 308.38C258.873 312.633 260.307 316.715 261.713 320.744C259.845 322.462 260.232 325.424 260.477 327.951C261.367 337.339 258.106 346.706 258.581 356.121C258.778 360.082 259.641 363.988 259.845 367.948C260.069 372.275 259.519 376.602 259.003 380.902C255.705 408.43 253.891 436.115 253.568 463.838C253.568 466.392 253.527 468.987 254.247 471.432C259.186 475.066 265.388 475.556 271.366 474.197C277.344 472.838 282.798 469.809 288.158 466.82C291.094 465.3 293.878 463.503 296.473 461.453C297.266 460.892 297.853 460.085 298.144 459.157C298.714 456.44 294.937 455.211 292.77 453.451C289.618 450.89 289.666 446.149 289.992 442.1L291.962 417.537C292.41 411.973 292.845 406.301 291.582 400.867C291.065 398.666 290.271 396.404 290.746 394.189C291.521 390.589 295.243 388.578 297.777 385.895C301.608 381.819 302.79 376.038 303.673 370.536C307.835 344.433 308.72 317.911 306.309 291.588C301.316 293.32 295.399 292.376 290.135 292.784C284.87 293.191 279.64 294.951 274.307 295.093C269.865 295.195 264.294 292.743 261.563 296.248Z" fill="#BBBDC8"/>
<path d="M297.532 175.089C311.414 175.089 322.666 163.836 322.666 149.955C322.666 136.074 311.414 124.821 297.532 124.821C283.651 124.821 272.398 136.074 272.398 149.955C272.398 163.836 283.651 175.089 297.532 175.089Z" fill="#A1616A"/>
<path d="M311.736 191.297C303.683 187.598 295.285 184.699 286.664 182.642C280.591 181.196 273.655 180.326 268.581 183.96C267.222 184.932 265.993 186.46 266.285 188.104C267.18 188.134 268.036 188.481 268.699 189.083C269.362 189.685 269.79 190.503 269.905 191.392C270.055 192.832 269.348 194.211 268.655 195.468L262.793 206.336C261.67 208.294 260.704 210.339 259.906 212.45C258.724 215.901 258.466 219.596 258.215 223.237L257.535 233.101C257.114 239.316 256.686 245.559 257.25 251.761C257.671 256.441 258.649 261.142 257.984 265.795C257.447 269.538 255.864 273.05 254.974 276.732C253.303 283.661 254.064 291.255 250.824 297.614C252.14 297.006 253.625 296.872 255.029 297.233C264.865 299.047 272.602 306.811 282.153 309.78C284.565 306.261 287.832 303.666 290.529 300.392C292.534 297.938 293.862 295.001 294.38 291.874C296.418 294.591 298.151 296.71 299.366 299.862C299.583 300.595 299.953 301.274 300.453 301.852C301.737 303.102 303.85 302.62 305.568 302.097C313.994 299.556 322.705 298.079 331.497 297.702C332.91 297.641 333.596 296.962 334.038 295.617C334.479 294.271 334.235 292.818 333.97 291.432C332.278 282.377 330.39 273.308 330.077 264.104C329.887 258.67 330.261 253.16 329.575 247.74C329.235 245.084 328.644 242.468 328.06 239.86L323.21 218.306C322.938 217.103 321.647 216.315 321.097 215.208C318.869 210.697 314.61 207.437 312.409 202.913C310.746 199.259 310.507 195.117 311.736 191.297Z" fill="#46455B"/>
<path d="M276.474 160.015C276.445 159.663 276.528 159.311 276.712 159.01C276.98 158.727 277.317 158.519 277.69 158.405C278.703 157.924 279.531 157.126 280.05 156.132C280.568 155.138 280.749 154.002 280.563 152.896L282.941 152.4L283.016 144.119C286.548 142.163 291.364 143.644 294.686 141.341C296.554 140.037 297.512 137.822 298.653 135.852C299.794 133.882 301.492 131.899 303.761 131.736C302.981 133.721 302.647 135.852 302.782 137.981C302.917 140.109 303.518 142.181 304.543 144.052C306.921 142.848 308.908 140.991 310.269 138.699L311.451 145.492C311.475 145.91 311.654 146.305 311.954 146.599C312.572 147.054 313.407 146.483 313.951 145.92L317.028 142.897C318.323 146.146 319.211 149.544 319.671 153.011C324.724 148.107 326.294 140.227 324.351 133.461C322.408 126.696 317.32 121.091 311.193 117.634C305.066 114.176 297.96 112.722 290.929 112.464C288.569 112.326 286.201 112.479 283.878 112.919C281.386 113.546 278.975 114.458 276.691 115.637C273.179 117.287 269.633 119.101 267.011 121.954C262.446 126.926 261.421 134.236 261.923 140.974C262.603 149.805 265.469 158.33 268.805 166.536C269.912 169.253 271.094 172.005 272.921 174.321C275.672 177.806 282.431 174.912 281.569 168.024C280.971 163.106 276.474 165.001 276.474 160.015Z" fill="#3F3D56"/>
<path d="M285.984 294.577C277.507 311.899 264.489 326.595 248.317 337.101C243.433 340.26 238.128 343.072 232.415 343.996C231.634 344.125 230.853 344.214 230.058 344.268C227.112 344.512 224.152 344.01 221.451 342.807C219.663 341.907 218.008 340.764 216.533 339.411C211.247 334.784 207.046 329.048 204.231 322.612C202.576 318.572 201.203 314.423 200.121 310.194C198.455 304.28 196.793 298.363 195.135 292.444C193.512 286.657 191.874 280.801 191.535 274.782C190.985 265.007 193.919 255.327 198.043 246.449C198.746 245.082 199.312 243.648 199.734 242.169C199.734 242.067 199.782 241.966 199.802 241.857C200.291 239.513 200.04 237.061 200.481 234.697C201.31 229.942 204.815 226.002 208.932 223.495C213.048 220.989 217.763 219.705 222.443 218.455L229.732 216.492L234.256 215.276L252.658 210.324C255.205 209.645 257.78 208.741 260.368 208.286C263.255 207.743 263.235 208.028 263.459 210.854C263.873 215.976 263.737 221.009 264.817 226.084C265.843 230.927 267.65 235.594 269.009 240.349C272.439 252.352 273.01 264.987 275.713 277.18C276.332 279.959 277.187 282.92 279.422 284.653C281.983 286.691 286.297 287.193 286.976 290.386C287.227 291.806 286.596 293.259 285.984 294.577Z" fill="#5A2BBF"/>
<path opacity="0.1" d="M232.415 343.969C231.634 344.098 230.853 344.186 230.058 344.241C227.114 344.493 224.154 344 221.451 342.807C219.663 341.907 218.008 340.764 216.533 339.411C211.247 334.784 207.046 329.048 204.231 322.612C202.576 318.572 201.203 314.423 200.121 310.194C198.455 304.28 196.793 298.363 195.135 292.444C193.512 286.657 191.874 280.801 191.535 274.783C190.985 265.007 193.919 255.327 198.043 246.449C198.746 245.082 199.312 243.648 199.734 242.169C199.734 242.068 199.782 241.966 199.802 241.857C210.888 243.807 224.189 265.014 231.05 292.804C236.104 313.584 236.321 332.72 232.415 343.969Z" fill="black"/>
<path opacity="0.1" d="M252.454 270.849L250.6 271.169C248.691 266.155 246.789 261.135 244.554 256.258C243.392 253.711 242.136 251.197 241.157 248.568C237.489 238.474 238.114 226.498 231.314 218.183C230.829 217.566 230.275 217.005 229.664 216.512L234.188 215.296C238.15 221.56 240.944 228.49 242.435 235.75C243.168 239.296 243.583 242.923 244.778 246.333C245.795 248.92 246.958 251.447 248.263 253.901C250.844 259.193 252.787 264.973 252.454 270.849Z" fill="black"/>
<path d="M270.51 194.313C275.394 190.128 282.058 187.832 288.382 188.879C292.105 189.483 295.562 191.161 298.898 192.954C305.399 196.405 311.804 200.379 316.491 206.051C319.302 209.629 321.636 213.556 323.434 217.735C324.316 219.561 324.999 221.476 325.472 223.448C327.129 231.124 323.06 238.753 319.141 245.559L311.601 258.642C308.136 264.654 304.645 270.707 300.134 275.985C298.055 278.417 295.773 280.665 293.497 282.914L283.505 292.777C283.325 292.989 283.09 293.147 282.825 293.232C282.607 293.244 282.389 293.208 282.186 293.127C281.983 293.046 281.801 292.922 281.65 292.764L278.349 290.135C281.39 288.034 284.216 285.638 286.786 282.982C291.106 278.512 294.659 273.37 298.191 268.248L309.182 252.311C312.395 247.645 315.751 242.509 315.391 236.857C315.221 234.14 314.202 231.586 313.136 229.093C311.247 224.659 309.196 220.296 306.981 216.003C304.495 211.187 301.778 206.432 298.198 202.363C294.618 198.294 290.094 194.89 284.884 193.416C283.33 192.909 281.683 192.751 280.061 192.954C276.488 193.545 273.947 196.616 271.685 199.469L264.797 208.3C263.228 210.304 261.788 212.627 261.693 208.823C261.529 203.395 267.018 197.804 270.51 194.313Z" fill="#5A2BBF"/>
<path d="M272.643 253.887C274.001 259.118 276.005 265.055 281.039 267.038C284.605 268.445 288.783 267.303 291.867 265C294.951 262.698 297.138 259.451 299.149 256.17C300.851 253.221 302.727 250.377 304.767 247.651C308.795 242.597 314.277 238.589 316.994 232.707C317.796 230.954 318.353 229.079 319.263 227.395C320.236 225.841 321.335 224.371 322.551 223C325.678 219.125 328.179 214.783 329.962 210.134C330.587 208.51 331.124 206.771 330.879 205.052C330.397 201.744 327.265 199.571 324.351 197.947C322.578 196.962 320.724 196.004 318.706 195.855C315.758 195.624 312.857 197.213 311.044 199.543C309.298 201.953 308.322 204.835 308.245 207.81C308.041 211.431 308.747 215.194 307.566 218.618C306.94 220.215 306.077 221.709 305.005 223.047C301.189 228.152 296.466 232.511 291.072 235.906C290.924 233.337 290.367 230.807 289.421 228.414C288.905 227.096 278.784 228.414 277.466 228.631C274.857 229.011 269.803 229.31 268.159 231.796C266.516 234.283 268.553 238.46 269.219 240.967L272.643 253.887Z" fill="#A1616A"/>
<path d="M272.398 196.806C270.895 198.048 269.495 199.411 268.214 200.882C265.198 204.516 263.724 209.244 263.343 213.951C262.963 218.659 263.608 223.387 264.417 228.04C265.15 232.215 266.018 236.361 267.018 240.478C267.297 237.374 269.81 234.806 272.724 233.685C275.639 232.564 278.838 232.686 281.943 233.142C285.938 233.733 289.836 234.86 293.531 236.49L294.965 216.404C295.266 213.694 295.25 210.958 294.917 208.252C294.466 205.741 293.485 203.355 292.039 201.252C290.594 199.15 288.717 197.379 286.535 196.059C281.087 192.744 277.289 192.533 272.398 196.806Z" fill="#46455B"/>
<path d="M529.023 294.55C528.379 289.099 526.793 283.801 524.336 278.892C522.835 275.903 521.008 273.043 520.064 269.844C519.296 267.242 519.146 264.505 518.535 261.862C517.924 259.22 516.844 256.693 515.974 254.111C509.827 235.77 514.446 215.704 512.462 196.48C511.722 189.388 509.548 181.61 503.4 177.915C499.746 175.72 495.357 175.381 491.058 175.197L489.094 175.109L485.942 174.953C481.378 174.729 476.799 174.559 472.356 175.517C466.922 176.705 460.482 180.53 458.77 186.08C457.833 185.597 456.889 185.17 456.019 184.769C452.52 183.216 448.852 182.077 445.089 181.372C448.317 180.559 451.433 179.355 454.369 177.786C461.162 173.832 462.738 162.284 464.123 154.56C465.509 146.837 464.246 138.855 461.943 131.349C461.182 128.685 460.146 126.108 458.852 123.659C457.064 120.433 454.63 117.611 451.702 115.368C448.774 113.126 445.415 111.511 441.835 110.625C438.255 109.739 434.53 109.6 430.894 110.218C427.258 110.836 423.789 112.198 420.703 114.217C414.365 118.367 408.475 124.406 403.639 130.242C402.959 131.043 400.12 133.883 401.064 135.078C401.594 135.757 403.34 135.214 405.174 134.399C403.763 137.586 403.036 141.034 403.041 144.52C403.045 148.899 404.189 153.2 406.36 157.002C408.532 160.804 411.655 163.975 415.424 166.204L416.104 172.453V172.501C416.179 174.586 416.212 176.672 416.24 178.75C416.24 180.211 416.24 181.705 416.199 183.2C413.38 186.389 409.929 188.957 406.064 190.74C409.256 191.27 412.3 190.522 415.261 189.245C414.78 190.914 413.972 192.47 412.884 193.824C413.699 193.538 414.514 193.28 415.329 193.009C414.903 193.693 414.524 194.406 414.195 195.142C413.692 196.305 413.325 197.522 413.101 198.769C411.372 201.296 409.873 203.975 408.625 206.771C408.054 208.041 407.545 209.332 407.083 210.643V210.731C406.63 212.036 406.229 213.358 405.88 214.699C405.717 215.342 405.568 215.987 405.432 216.635C405.432 216.682 405.432 216.73 405.432 216.777C405.16 218.088 404.936 219.406 404.753 220.738C404.753 220.826 404.753 220.914 404.753 221.009C404.678 221.627 404.61 222.252 404.563 222.877C404.563 222.877 404.563 222.938 404.563 222.972C404.508 223.652 404.467 224.297 404.447 224.963C404.447 225.051 404.447 225.133 404.447 225.221C404.447 225.785 404.447 226.355 404.447 226.919V227.306C404.447 228.583 404.529 229.867 404.651 231.151C404.651 231.307 404.651 231.47 404.698 231.627C404.753 232.15 404.814 232.673 404.889 233.203C404.889 233.325 404.889 233.447 404.936 233.563C405.024 234.194 405.126 234.819 405.242 235.444C405.242 235.58 405.303 235.723 405.33 235.859C405.425 236.361 405.527 236.857 405.643 237.36L405.765 237.876C405.914 238.501 406.071 239.119 406.247 239.744C406.349 240.098 406.451 240.424 406.56 240.797C406.884 242.085 407.111 243.395 407.239 244.717L403.523 244.839C395.571 245.065 387.625 245.425 379.687 245.919C378.695 242.095 375.312 239.887 371.053 239.364C370.377 239.282 369.696 239.242 369.015 239.242C369.75 238.623 370.402 237.913 370.958 237.129C371.697 236.112 372.223 234.957 372.506 233.732C371.412 234.356 370.455 235.194 369.694 236.198C369.443 236.538 369.219 236.878 369.015 237.19V235.152C369.016 235.109 369.008 235.066 368.992 235.026C368.976 234.986 368.952 234.95 368.921 234.92C368.891 234.889 368.855 234.865 368.815 234.849C368.775 234.833 368.732 234.825 368.689 234.826H368.01C367.966 234.825 367.924 234.833 367.884 234.849C367.844 234.865 367.807 234.889 367.777 234.92C367.746 234.95 367.722 234.986 367.706 235.026C367.69 235.066 367.683 235.109 367.683 235.152V239.303H367.548H367.317C366.868 239.344 366.434 239.398 366.006 239.479C361.38 240.342 357.99 243.311 357.99 248.31C357.991 249.885 358.334 251.44 358.996 252.868C359.657 254.297 360.621 255.565 361.821 256.584C362.02 258.141 362.373 259.675 362.874 261.163C363.343 262.637 363.954 264.24 365.326 264.973C366.165 265.354 367.084 265.522 368.003 265.463C375.557 265.463 382.703 261.978 390.223 261.387C394.869 261.013 399.536 261.733 404.196 261.59C404.875 261.59 405.554 261.523 406.234 261.468C399.862 293.022 392.152 324.976 396.18 356.848C396.445 358.968 396.859 361.264 398.442 362.704C400.541 364.62 403.775 364.307 406.594 364.063C414.33 363.357 422.13 363.98 429.656 365.903C430.714 366.196 431.826 366.236 432.903 366.019C433.133 365.967 433.36 365.901 433.582 365.822L433.772 365.747C433.915 365.693 434.051 365.639 434.18 365.577L434.377 365.476L434.71 365.272C434.764 365.231 434.825 365.197 434.873 365.156C434.991 365.075 435.102 364.984 435.206 364.885L435.301 364.803C435.428 364.678 435.548 364.547 435.661 364.409L435.742 364.287C435.821 364.185 435.894 364.078 435.96 363.967C435.994 363.913 436.028 363.859 436.055 363.804C436.082 363.75 436.163 363.601 436.211 363.499C436.259 363.397 436.265 363.376 436.286 363.315C436.306 363.254 436.374 363.091 436.415 362.976C436.456 362.86 436.415 362.867 436.469 362.806C436.523 362.745 436.564 362.466 436.598 362.296V362.188C436.598 362.045 436.653 361.896 436.673 361.753C436.693 361.61 436.673 361.604 436.673 361.529C436.673 361.454 436.673 361.305 436.673 361.196V360.951C436.673 360.843 436.673 360.734 436.673 360.625V360.021C436.673 359.953 436.673 359.878 436.673 359.803C436.673 359.199 436.605 358.587 436.544 358.003C437.029 358.144 437.524 358.251 438.025 358.322C438.492 358.397 438.965 358.431 439.438 358.424H439.506C439.73 358.424 439.954 358.424 440.185 358.37C440.382 358.34 440.577 358.299 440.769 358.248H440.857C441.035 358.195 441.208 358.127 441.374 358.044L441.455 357.996C441.596 357.918 441.731 357.827 441.856 357.725L441.917 357.677C442.044 357.559 442.158 357.427 442.257 357.283L442.318 357.181C442.419 357.017 442.498 356.842 442.556 356.658C442.943 355.347 442.06 353.866 443.473 352.664C444.831 357.018 446.19 361.379 446.414 365.883C446.489 367.527 446.414 369.28 447.379 370.638C448.006 371.38 448.688 372.074 449.417 372.717C451.495 374.965 451.543 378.355 451.4 381.398C451.339 382.628 451.271 383.857 451.183 385.087C450.06 401.494 446.724 417.675 441.265 433.188C440.733 434.838 440.037 436.431 439.186 437.943C437.808 440.082 436.084 441.979 434.085 443.554C431.253 445.959 428.218 448.116 425.016 450C423.38 450.865 421.835 451.892 420.404 453.064C420.349 452.908 420.288 452.758 420.248 452.595C420.173 452.283 420.071 451.916 419.765 451.801C419.533 451.748 419.29 451.787 419.086 451.909C415.9 453.309 412.714 454.708 409.65 456.345C408.104 457.05 406.741 458.103 405.67 459.422C404.692 460.781 404.399 462.819 405.412 464.177C406.302 465.366 407.898 465.76 409.372 466.025C411.26 466.358 413.156 466.596 415.051 466.772C414.077 467.343 413.225 468.1 412.544 469C411.566 470.359 411.274 472.397 412.286 473.756C413.176 474.944 414.772 475.338 416.246 475.603C428.29 477.729 440.64 476.283 452.867 475.922C456.841 475.793 460.903 475.766 464.667 474.476C465.409 474.256 466.101 473.894 466.705 473.409C468.416 471.901 468.247 469.252 467.948 467.003L466.705 457.819C466.521 457.819 466.345 457.88 466.168 457.921C467.209 449.294 469.077 440.786 471.745 432.515C475.889 419.643 482.057 406.96 481.975 393.49C481.975 393.164 481.975 392.81 481.975 392.512C481.86 388.293 481.106 384.122 480.617 379.924C479.849 372.9 479.937 365.815 479.985 358.757C479.926 355.99 480.119 353.223 480.562 350.49C480.562 350.395 480.603 350.307 480.624 350.212L491.907 349.913C493.157 349.976 494.404 349.743 495.548 349.233C496.088 348.996 496.522 348.567 496.766 348.029C497.009 347.491 497.044 346.882 496.865 346.319C501.675 348.5 508.108 345.531 509.528 340.477C509.626 340.122 509.706 339.761 509.765 339.397C509.762 339.37 509.762 339.343 509.765 339.316C509.813 338.976 509.847 338.636 509.86 338.304C509.86 338.249 509.86 338.188 509.86 338.134C509.931 335.801 509.569 333.475 508.794 331.273C506.484 324.731 502.816 318.774 499.365 312.748C497.586 309.63 495.86 306.472 494.182 303.299L495.656 305.195C496.174 305.968 496.853 306.619 497.647 307.103C500.398 308.523 503.278 305.663 506.077 304.346C509.793 302.593 514.14 303.625 518.243 303.918C522.346 304.21 527.291 303.15 528.759 299.346C529.234 297.792 529.325 296.146 529.023 294.55ZM458.288 192.458C458.288 193.912 458.383 195.386 458.499 196.867C457.12 194.614 455.528 192.498 453.744 190.55L458.288 192.458Z" fill="url(#paint1_linear_826_104)"/>
<path d="M369.538 237.421C370.29 236.425 371.235 235.591 372.316 234.969C372.04 236.192 371.521 237.347 370.788 238.365C369.606 239.975 368.363 241.082 368.016 240.818C367.67 240.553 368.342 239.031 369.538 237.421Z" fill="#99D55C"/>
<path opacity="0.1" d="M369.687 237.543C370.237 236.803 370.93 236.182 371.725 235.716C371.518 236.621 371.133 237.476 370.591 238.229C369.708 239.425 368.784 240.267 368.553 240.057C368.322 239.846 368.804 238.739 369.687 237.543Z" fill="black"/>
<path d="M367.887 236.069H368.566C368.609 236.069 368.652 236.078 368.691 236.094C368.731 236.11 368.767 236.134 368.797 236.165C368.827 236.195 368.851 236.231 368.868 236.271C368.884 236.31 368.892 236.352 368.892 236.395V244.092H367.602V236.395C367.601 236.315 367.63 236.238 367.682 236.178C367.735 236.118 367.808 236.079 367.887 236.069Z" fill="#F6987E"/>
<path d="M379.727 249.526C379.727 252.409 378.582 255.173 376.544 257.212C374.506 259.25 371.741 260.395 368.859 260.395C365.976 260.395 363.212 259.25 361.173 257.212C359.135 255.173 357.99 252.409 357.99 249.526C357.99 244.547 361.339 241.599 365.91 240.736C366.883 240.557 367.87 240.468 368.859 240.471C369.54 240.47 370.22 240.511 370.897 240.593C375.923 241.218 379.727 244.221 379.727 249.526Z" fill="#FC4A4A"/>
<path opacity="0.1" d="M370.896 240.593C370.699 240.967 369.633 241.273 368.342 241.273C367.5 241.334 366.657 241.158 365.91 240.763C366.883 240.584 367.87 240.495 368.859 240.498C369.539 240.488 370.22 240.52 370.896 240.593Z" fill="black"/>
<path opacity="0.1" d="M370.672 260.137C367.79 260.137 365.025 258.992 362.987 256.953C360.949 254.915 359.804 252.151 359.804 249.268C359.804 244.377 363.03 241.449 367.473 240.532C366.949 240.572 366.427 240.64 365.91 240.736C361.339 241.599 357.99 244.547 357.99 249.526C357.99 252.409 359.135 255.173 361.173 257.212C363.212 259.25 365.976 260.395 368.859 260.395C369.68 260.396 370.498 260.303 371.297 260.116C371.087 260.13 370.897 260.137 370.672 260.137Z" fill="black"/>
<path d="M418.583 461.311C420.084 462.669 422.38 462.635 424.418 462.486L433.704 461.807C441.081 461.263 448.71 460.652 455.218 457.14C455.906 456.825 456.517 456.361 457.004 455.781C457.521 454.893 457.791 453.882 457.785 452.854C458.664 442.792 460.665 432.86 463.75 423.243C467.825 410.438 473.939 397.817 473.858 384.414C473.858 384.088 473.858 383.735 473.858 383.443C473.742 379.245 473.002 375.094 472.546 370.917C471.792 363.927 471.867 356.882 471.921 349.858C471.863 347.105 472.054 344.351 472.492 341.632C472.92 339.424 474.53 337.21 473.545 335.267C471.636 331.497 464.714 330.111 460.992 329.975C455.978 329.799 451.047 331.11 446.203 332.414C444.729 332.815 443.187 333.243 442.073 334.282C440.579 335.681 440.151 337.876 440.096 339.92C439.838 348.989 445.062 357.426 445.476 366.481C445.551 368.111 445.476 369.877 446.427 371.236C447.055 371.976 447.736 372.668 448.465 373.308C450.503 375.543 450.564 378.912 450.422 381.942C450.361 383.164 450.293 384.387 450.211 385.61C449.101 401.929 445.805 418.025 440.409 433.466C439.889 435.115 439.206 436.708 438.371 438.221C437.008 440.346 435.305 442.233 433.331 443.805C430.533 446.195 427.535 448.34 424.371 450.218C422.258 451.468 420.003 452.663 418.556 454.647C417.109 456.63 416.79 459.64 418.583 461.311Z" fill="#FDA8A8"/>
<path opacity="0.1" d="M418.583 461.311C420.084 462.669 422.38 462.635 424.418 462.486L433.704 461.807C441.081 461.263 448.71 460.652 455.218 457.14C455.906 456.825 456.517 456.361 457.004 455.781C457.521 454.893 457.791 453.882 457.785 452.854C458.664 442.792 460.665 432.86 463.75 423.243C467.825 410.438 473.939 397.817 473.858 384.414C473.858 384.088 473.858 383.735 473.858 383.443C473.742 379.245 473.002 375.094 472.546 370.917C471.792 363.927 471.867 356.882 471.921 349.858C471.863 347.105 472.054 344.351 472.492 341.632C472.92 339.424 474.53 337.21 473.545 335.267C471.636 331.497 464.714 330.111 460.992 329.975C455.978 329.799 451.047 331.11 446.203 332.414C444.729 332.815 443.187 333.243 442.073 334.282C440.579 335.681 440.151 337.876 440.096 339.92C439.838 348.989 445.062 357.426 445.476 366.481C445.551 368.111 445.476 369.877 446.427 371.236C447.055 371.976 447.736 372.668 448.465 373.308C450.503 375.543 450.564 378.912 450.422 381.942C450.361 383.164 450.293 384.387 450.211 385.61C449.101 401.929 445.805 418.025 440.409 433.466C439.889 435.115 439.206 436.708 438.371 438.221C437.008 440.346 435.305 442.233 433.331 443.805C430.533 446.195 427.535 448.34 424.371 450.218C422.258 451.468 420.003 452.663 418.556 454.647C417.109 456.63 416.79 459.64 418.583 461.311Z" fill="black"/>
<path d="M418.583 461.311C420.084 462.669 422.38 462.635 424.418 462.486L433.704 461.807C441.081 461.263 448.71 460.652 455.218 457.14C455.906 456.825 456.517 456.361 457.004 455.781C457.521 454.893 457.791 453.882 457.785 452.854C458.664 442.792 460.665 432.86 463.75 423.243C467.825 410.438 473.939 397.817 473.858 384.414C466.006 385.283 458.11 385.673 450.211 385.583C449.102 401.902 445.805 417.998 440.409 433.439C439.889 435.088 439.206 436.681 438.371 438.194C437.008 440.319 435.305 442.206 433.331 443.778C430.533 446.168 427.535 448.313 424.371 450.191C422.258 451.441 420.003 452.636 418.556 454.62C417.109 456.603 416.79 459.64 418.583 461.311Z" fill="#EEEFF3"/>
<path opacity="0.1" d="M418.583 461.311C420.084 462.669 422.38 462.635 424.418 462.486L433.704 461.807C441.081 461.263 448.71 460.652 455.218 457.14C455.906 456.825 456.517 456.361 457.004 455.781C457.521 454.893 457.791 453.882 457.785 452.854C458.664 442.792 460.665 432.86 463.75 423.243C467.825 410.438 473.939 397.817 473.858 384.414C466.006 385.283 458.11 385.673 450.211 385.583C449.102 401.902 445.805 417.998 440.409 433.439C439.889 435.088 439.206 436.681 438.371 438.194C437.008 440.319 435.305 442.206 433.331 443.778C430.533 446.168 427.535 448.313 424.371 450.191C422.258 451.441 420.003 452.636 418.556 454.62C417.109 456.603 416.79 459.64 418.583 461.311Z" fill="black"/>
<path d="M439.098 458.444C441.329 457.645 443.473 456.62 445.497 455.387L455.734 449.613C456.659 449.014 457.689 448.597 458.77 448.384L459.993 457.52C460.299 459.762 460.462 462.398 458.77 463.899C458.166 464.381 457.474 464.741 456.732 464.959C453.017 466.242 449.009 466.27 445.076 466.392C432.998 466.779 420.798 468.192 408.896 466.073C407.443 465.814 405.867 465.393 404.99 464.238C403.992 462.88 404.277 460.91 405.242 459.531C406.299 458.22 407.645 457.172 409.175 456.467C412.204 454.837 415.35 453.451 418.495 452.059C418.689 451.944 418.919 451.905 419.14 451.95C419.446 452.052 419.541 452.425 419.622 452.738C420.173 454.966 421.966 456.725 424.011 457.778C424.038 457.778 434.574 459.884 439.098 458.444Z" fill="#BBBDC8"/>
<path opacity="0.1" d="M439.098 458.444C441.329 457.645 443.473 456.62 445.497 455.387L455.734 449.613C456.659 449.014 457.689 448.597 458.77 448.384L459.993 457.52C460.299 459.762 460.462 462.398 458.77 463.899C458.166 464.381 457.474 464.741 456.732 464.959C453.017 466.242 449.009 466.27 445.076 466.392C432.998 466.779 420.798 468.192 408.896 466.073C407.443 465.814 405.867 465.393 404.99 464.238C403.992 462.88 404.277 460.91 405.242 459.531C406.299 458.22 407.645 457.172 409.175 456.467C412.204 454.837 415.35 453.451 418.495 452.059C418.689 451.944 418.919 451.905 419.14 451.95C419.446 452.052 419.541 452.425 419.622 452.738C420.173 454.966 421.966 456.725 424.011 457.778C424.038 457.778 434.574 459.884 439.098 458.444Z" fill="black"/>
<path d="M425.376 470.821C426.878 472.18 429.174 472.146 431.211 471.996L440.497 471.317C447.875 470.773 455.503 470.162 462.011 466.65C462.7 466.335 463.31 465.871 463.797 465.292C464.315 464.403 464.584 463.392 464.579 462.364C465.458 452.302 467.458 442.37 470.543 432.753C474.619 419.948 480.732 407.327 480.651 393.925C480.651 393.598 480.651 393.245 480.651 392.953C480.535 388.755 479.795 384.605 479.34 380.427C478.586 373.437 478.66 366.393 478.715 359.369C478.657 356.615 478.848 353.862 479.285 351.142C479.713 348.935 481.323 346.72 480.338 344.777C478.429 341.007 471.507 339.621 467.785 339.486C462.772 339.309 457.84 340.62 452.997 341.924C451.522 342.325 449.98 342.753 448.866 343.792C447.372 345.192 446.944 347.386 446.89 349.431C446.631 358.499 451.855 366.936 452.27 375.991C452.344 377.621 452.27 379.388 453.221 380.746C453.848 381.486 454.529 382.178 455.259 382.818C457.296 385.053 457.358 388.422 457.215 391.452C457.154 392.675 457.086 393.897 457.004 395.12C455.895 411.439 452.598 427.535 447.202 442.977C446.682 444.625 445.999 446.218 445.164 447.732C443.801 449.856 442.098 451.743 440.124 453.316C437.326 455.705 434.328 457.85 431.164 459.728C429.051 460.978 426.796 462.174 425.349 464.157C423.902 466.141 423.583 469.15 425.376 470.821Z" fill="#FDA8A8"/>
<path d="M425.376 470.821C426.878 472.18 429.174 472.146 431.211 471.996L440.497 471.317C447.875 470.773 455.503 470.162 462.011 466.65C462.7 466.335 463.31 465.871 463.797 465.291C464.315 464.403 464.584 463.392 464.579 462.364C465.458 452.302 467.458 442.37 470.543 432.753C474.619 419.948 480.732 407.327 480.651 393.924C472.8 394.793 464.903 395.183 457.004 395.093C455.895 411.412 452.598 427.508 447.202 442.949C446.682 444.598 445.999 446.191 445.164 447.704C443.801 449.829 442.098 451.716 440.124 453.288C437.326 455.678 434.328 457.823 431.164 459.701C429.051 460.951 426.796 462.146 425.349 464.13C423.902 466.113 423.583 469.15 425.376 470.821Z" fill="#EEEFF3"/>
<path d="M445.891 467.954C448.122 467.155 450.266 466.131 452.29 464.897L462.527 459.123C463.452 458.524 464.482 458.107 465.563 457.894L466.786 467.03C467.092 469.272 467.255 471.908 465.563 473.409C464.959 473.891 464.267 474.251 463.526 474.469C459.81 475.753 455.802 475.78 451.869 475.902C439.791 476.289 427.591 477.702 415.689 475.583C414.236 475.325 412.66 474.904 411.784 473.749C410.785 472.39 411.07 470.42 412.035 469.041C413.092 467.73 414.438 466.682 415.968 465.978C418.998 464.347 422.143 462.961 425.288 461.569C425.482 461.454 425.712 461.415 425.933 461.46C426.239 461.562 426.334 461.936 426.416 462.248C426.966 464.476 428.759 466.236 430.804 467.289C430.831 467.289 441.367 469.394 445.891 467.954Z" fill="#BBBDC8"/>
<path d="M412.205 195.271C415.513 191.195 415.601 185.502 415.52 180.272C415.52 178.234 415.458 176.128 415.384 174.056V174.009C415.292 170.201 414.89 166.407 414.181 162.664C413.824 160.868 413.347 159.098 412.755 157.366C413.203 157.264 413.651 157.169 414.113 157.087C421.234 155.681 428.561 155.681 435.681 157.087C436.911 157.332 440.022 157.278 441.795 157.882C442.3 158.003 442.739 158.311 443.024 158.745C443.371 159.472 442.658 161.577 442.141 163.446C441.857 164.287 441.697 165.166 441.666 166.054C441.734 166.888 441.862 167.717 442.046 168.534C442.365 170.035 442.787 171.522 442.984 173.044C443.33 175.639 443.024 178.281 443.194 180.897C443.364 183.512 444.118 186.263 446.108 187.968C434.544 188.96 423.152 191.413 412.205 195.271Z" fill="#FDA8A8"/>
<path opacity="0.1" d="M444.757 168.235C443.853 168.309 442.956 168.398 442.039 168.5C432.991 169.466 424.062 171.332 415.384 174.07V174.022L414.181 162.678C414.181 161.999 414.181 161.319 414.181 160.606C414.181 159.444 414.147 158.269 414.12 157.101C421.241 155.695 428.567 155.695 435.688 157.101C436.917 157.345 440.029 157.291 441.802 157.896C441.802 159.003 441.802 160.11 441.842 161.217C441.887 161.971 441.989 162.721 442.148 163.459C442.473 165.293 443.389 166.97 444.757 168.235Z" fill="black"/>
<path d="M427.618 171.353C441.499 171.353 452.752 160.1 452.752 146.219C452.752 132.337 441.499 121.085 427.618 121.085C413.737 121.085 402.484 132.337 402.484 146.219C402.484 160.1 413.737 171.353 427.618 171.353Z" fill="#FDA8A8"/>
<path d="M405.541 240.987C401.078 225.194 405.153 208.232 415.812 195.76C418.182 192.981 420.567 190.128 423.678 188.464C427.38 186.494 431.762 186.426 435.953 186.385C439.655 186.385 443.473 186.385 446.876 187.86C451.475 189.823 454.647 194.089 457.323 198.321C460.177 202.831 462.758 207.715 463.193 213.041C463.424 216.2 462.867 219.406 463.335 222.551C463.933 226.539 466.154 230.112 467.065 234.038C467.56 236.158 467.662 238.352 467.982 240.512C468.463 243.467 469.162 246.382 470.074 249.234C476.823 271.644 486.065 293.227 497.626 313.577C501.023 319.575 504.657 325.506 506.939 332.007C507.972 334.948 508.719 338.12 507.877 341.15C506.471 346.177 500.119 349.132 495.371 346.965C495.547 347.523 495.511 348.126 495.27 348.66C495.03 349.194 494.601 349.62 494.067 349.858C492.938 350.368 491.703 350.601 490.466 350.538L448.513 351.652C447.411 351.68 446.315 351.828 445.246 352.093C440.314 353.357 442.168 355.49 441.639 357.27C440.993 359.443 437.875 359.267 435.701 358.628C436.034 361.8 436.109 365.679 432.013 366.603C430.95 366.818 429.852 366.781 428.807 366.494C421.374 364.58 413.666 363.959 406.023 364.66C403.224 364.918 400.025 365.231 397.953 363.302C396.391 361.868 395.983 359.586 395.718 357.48C391.54 324.195 400.133 290.861 406.587 257.977C407.456 253.541 407.144 246.354 405.84 242.02L405.541 240.987Z" fill="#F75842"/>
<path d="M461.243 218.048C462.228 220.887 463.457 223.679 463.79 226.668C464.055 229.059 463.736 231.477 463.878 233.875C464.139 236.537 464.688 239.164 465.516 241.707C466.823 246.655 468.436 251.517 470.345 256.265C471.256 258.405 472.309 260.762 471.575 262.969C470.841 265.177 468.566 266.543 467.914 268.737C467.234 271.053 468.593 273.492 470.325 275.183C472.057 276.875 474.224 278.077 475.827 279.877C477.573 281.84 478.545 284.347 479.774 286.67C481.52 289.743 483.522 292.663 485.759 295.399L493.971 306.057C494.483 306.826 495.155 307.475 495.941 307.959C498.659 309.372 501.505 306.526 504.27 305.242C507.938 303.496 512.231 304.522 516.286 304.814C520.342 305.106 525.226 304.053 526.673 300.263C527.152 298.725 527.252 297.093 526.965 295.508C526.329 290.088 524.762 284.818 522.332 279.931C520.851 276.956 519.044 274.11 518.114 270.924C517.353 268.336 517.203 265.612 516.599 262.983C515.994 260.354 514.928 257.841 514.072 255.273C507.999 237.027 512.564 217.063 510.601 197.934C509.874 190.876 507.72 183.138 501.647 179.463C498.04 177.283 493.706 176.943 489.42 176.746L487.484 176.658L484.366 176.502C479.856 176.278 475.331 176.108 470.936 177.066C464.755 178.424 457.316 183.227 457.072 190.128C456.806 199.608 458.218 209.06 461.243 218.048Z" fill="#5A2BBF"/>
<path opacity="0.1" d="M484.4 176.474C485.234 181.097 485.65 185.785 485.643 190.482C485.766 203.891 487.212 217.246 488.666 230.56L489.624 239.391C489.801 241.021 490.011 242.733 490.983 244.044C491.954 245.355 493.992 246.041 495.276 245.029C496.064 241.911 495.907 238.637 495.751 235.424C495.412 228.59 495.074 221.754 494.739 214.916C494.413 208.259 494.06 201.595 493.251 194.979C492.617 189.854 491.683 184.771 490.453 179.755C490.219 178.717 489.894 177.7 489.481 176.719L487.545 176.631L484.4 176.474Z" fill="black"/>
<path d="M440.015 182.221C435.851 181.624 431.49 181.318 427.536 182.765C423.759 184.157 420.743 187.017 418.026 190.026C416.174 191.966 414.642 194.188 413.489 196.609C411.172 201.935 412.076 208.075 413.489 213.714C417.34 229.242 424.989 244.221 437.264 254.471C441.001 257.507 444.979 260.234 449.158 262.623C454.593 265.809 460.204 268.737 466.216 270.578C467.893 271.094 469.68 271.529 471.399 271.162C473.117 270.795 474.741 269.402 474.795 267.643C464.945 262.107 456.114 254.954 447.345 247.835C444.941 245.98 442.69 243.936 440.613 241.721C437.502 238.223 435.308 233.997 432.291 230.417C429.574 227.204 426.178 224.494 424.14 220.819C422.861 218.309 422.005 215.605 421.606 212.817C420.601 207.131 420.411 201.092 422.666 195.773C424.921 190.454 430.091 186.086 435.865 186.182C438.826 186.229 441.645 187.404 444.376 188.552L461.562 195.807C461.352 195.712 462.547 192.73 462.493 192.316C462.33 191.018 462.099 190.998 461.134 190.013C459.491 188.369 456.936 187.214 454.851 186.256C450.125 184.207 445.128 182.849 440.015 182.221Z" fill="#5A2BBF"/>
<path d="M405.806 141.463C410.709 140.374 415.247 138.034 418.977 134.67L415.384 153.528C418.963 151.885 422.435 150.015 425.777 147.93C426.259 156.557 425.56 165.382 422.38 173.411C419.201 181.44 413.339 188.627 405.473 192.193C412.456 193.362 418.726 188.349 424.941 184.959C429.275 182.602 436.68 185.027 441.421 183.6C445.443 182.418 449.573 181.386 453.2 179.273C459.939 175.34 461.467 163.853 462.833 156.177C464.198 148.501 462.955 140.553 460.686 133.081C459.931 130.435 458.909 127.872 457.636 125.432C455.886 122.228 453.491 119.422 450.601 117.191C447.711 114.96 444.391 113.352 440.848 112.47C437.306 111.588 433.619 111.45 430.02 112.065C426.422 112.68 422.99 114.035 419.942 116.044C413.679 120.167 407.871 126.234 403.088 131.987C402.409 132.782 399.604 135.608 400.534 136.797C401.669 138.237 408.326 134.134 409.453 133.577C409.127 134.806 407.103 141.144 405.806 141.463Z" fill="#FFD566"/>
<g opacity="0.1">
<path d="M434.071 361.169C433.009 361.384 431.91 361.347 430.865 361.06C423.432 359.145 415.725 358.525 408.081 359.226C405.283 359.484 402.083 359.797 400.011 357.867C398.449 356.434 398.041 354.152 397.776 352.046C393.599 318.76 402.192 285.427 408.645 252.542C409.515 248.106 409.202 240.919 407.898 236.586L407.592 235.533C405.077 226.552 405.226 217.034 408.02 208.137C403.386 218.462 402.508 230.083 405.541 240.987L405.846 242.04C407.151 246.374 407.463 253.588 406.594 257.997C400.161 290.882 391.568 324.235 395.725 357.501C395.99 359.606 396.404 361.889 397.96 363.322C399.998 365.231 403.231 364.918 406.03 364.681C413.673 363.98 421.38 364.6 428.813 366.515C429.859 366.802 430.957 366.839 432.02 366.624C435.362 365.87 435.926 363.146 435.844 360.449C435.302 360.794 434.701 361.038 434.071 361.169Z" fill="black"/>
<path d="M497.422 341.53C497.598 342.089 497.562 342.692 497.322 343.226C497.081 343.759 496.653 344.186 496.118 344.424C494.989 344.934 493.755 345.167 492.518 345.103L450.565 346.217C449.463 346.245 448.367 346.393 447.297 346.659C442.365 347.922 444.22 350.055 443.69 351.835C443.045 354.009 439.927 353.832 437.753 353.194C437.957 355.13 438.059 357.324 437.182 358.954C439.091 359.24 441.143 358.988 441.652 357.27C442.162 355.551 440.327 353.357 445.259 352.093C446.329 351.828 447.425 351.68 448.527 351.652L490.453 350.538C491.69 350.601 492.924 350.368 494.053 349.859C494.588 349.62 495.016 349.194 495.257 348.66C495.497 348.127 495.533 347.523 495.357 346.965C500.112 349.132 506.457 346.177 507.863 341.15C508.075 340.388 508.194 339.603 508.217 338.813C505.676 341.856 501.077 343.215 497.422 341.53Z" fill="black"/>
</g>
<path d="M441.142 199.584C444.751 207.257 447.941 215.118 450.7 223.136C452.928 229.596 454.891 236.382 454.151 243.175C453.411 249.968 449.396 256.829 442.875 258.969C440.103 259.879 437.135 259.886 434.22 259.953C427.24 260.117 420.275 260.68 413.359 261.638C410.14 262.171 406.896 262.531 403.638 262.718C399.033 262.868 394.427 262.148 389.835 262.521C382.404 263.126 375.346 266.597 367.887 266.597C366.977 266.653 366.067 266.485 365.238 266.108C363.879 265.374 363.275 263.785 362.813 262.317C361.773 259.002 360.958 255.198 362.718 252.203C364.885 248.514 369.809 247.774 374.082 247.448C383.701 246.768 393.331 246.293 402.973 246.021C411.199 245.79 420.111 245.478 426.49 240.274C426.92 239.967 427.272 239.562 427.516 239.092C427.757 238.297 427.728 237.444 427.434 236.667C424.906 226.788 423.821 216.595 424.214 206.404C424.171 205.49 424.408 204.585 424.894 203.81C425.471 203.188 426.221 202.752 427.047 202.56C432.742 200.732 438.839 200.563 444.627 202.071" fill="#FDA8A8"/>
<path d="M424.045 206.397C423.059 206.737 422.201 207.37 421.586 208.211C421.857 205.379 421.491 202.519 421.545 199.666C421.599 196.813 422.129 193.837 423.929 191.623C426.219 188.797 430.111 187.785 433.752 187.69C439.037 187.547 444.505 189.082 448.377 192.682C450.87 195.016 452.488 198.132 452.963 201.513C453.085 202.444 453.492 205.936 452.521 206.533C451.672 207.063 448.445 205.236 447.406 204.944C439.689 202.676 431.421 203.19 424.045 206.397Z" fill="#F75842"/>
<path opacity="0.1" d="M321.308 46.0222C323.934 46.0222 326.063 43.8932 326.063 41.2671C326.063 38.6409 323.934 36.512 321.308 36.512C318.682 36.512 316.553 38.6409 316.553 41.2671C316.553 43.8932 318.682 46.0222 321.308 46.0222Z" fill="#5A2BBF"/>
<path opacity="0.1" d="M353.235 137.727C355.861 137.727 357.99 135.598 357.99 132.972C357.99 130.346 355.861 128.217 353.235 128.217C350.609 128.217 348.48 130.346 348.48 132.972C348.48 135.598 350.609 137.727 353.235 137.727Z" fill="#5A2BBF"/>
<path opacity="0.1" d="M262.888 50.7773C265.514 50.7773 267.643 48.6483 267.643 46.0222C267.643 43.396 265.514 41.2671 262.888 41.2671C260.262 41.2671 258.133 43.396 258.133 46.0222C258.133 48.6483 260.262 50.7773 262.888 50.7773Z" fill="#5A2BBF"/>
<path opacity="0.1" d="M116.839 274.945C123.592 274.945 129.067 269.471 129.067 262.718C129.067 255.965 123.592 250.491 116.839 250.491C110.086 250.491 104.612 255.965 104.612 262.718C104.612 269.471 110.086 274.945 116.839 274.945Z" fill="#5A2BBF"/>
<path opacity="0.1" d="M609.33 73.1941C611.956 73.1941 614.085 71.0651 614.085 68.439C614.085 65.8128 611.956 63.6839 609.33 63.6839C606.704 63.6839 604.575 65.8128 604.575 68.439C604.575 71.0651 606.704 73.1941 609.33 73.1941Z" fill="#5A2BBF"/>
<path opacity="0.1" d="M614.764 148.596C623.393 148.596 630.388 141.601 630.388 132.972C630.388 124.343 623.393 117.348 614.764 117.348C606.135 117.348 599.14 124.343 599.14 132.972C599.14 141.601 606.135 148.596 614.764 148.596Z" fill="#5A2BBF"/>
<path opacity="0.1" d="M639.898 93.573C642.525 93.573 644.653 91.444 644.653 88.8179C644.653 86.1917 642.525 84.0628 639.898 84.0628C637.272 84.0628 635.143 86.1917 635.143 88.8179C635.143 91.444 637.272 93.573 639.898 93.573Z" fill="#5A2BBF"/>
<path opacity="0.1" d="M597.782 180.523C600.408 180.523 602.537 178.394 602.537 175.768C602.537 173.142 600.408 171.013 597.782 171.013C595.156 171.013 593.027 173.142 593.027 175.768C593.027 178.394 595.156 180.523 597.782 180.523Z" fill="#5A2BBF"/>
<path opacity="0.1" d="M311.798 84.0628C314.424 84.0628 316.553 81.9339 316.553 79.3077C316.553 76.6816 314.424 74.5526 311.798 74.5526C309.172 74.5526 307.043 76.6816 307.043 79.3077C307.043 81.9339 309.172 84.0628 311.798 84.0628Z" fill="#5A2BBF"/>
<path opacity="0.1" d="M133.822 324.534C136.448 324.534 138.577 322.405 138.577 319.779C138.577 317.153 136.448 315.024 133.822 315.024C131.196 315.024 129.067 317.153 129.067 319.779C129.067 322.405 131.196 324.534 133.822 324.534Z" fill="#5A2BBF"/>
<path opacity="0.1" d="M126.349 215.847C128.975 215.847 131.104 213.718 131.104 211.092C131.104 208.465 128.975 206.336 126.349 206.336C123.723 206.336 121.594 208.465 121.594 211.092C121.594 213.718 123.723 215.847 126.349 215.847Z" fill="#5A2BBF"/>
<path opacity="0.1" d="M387.2 41.2671C389.826 41.2671 391.955 39.1381 391.955 36.512C391.955 33.8858 389.826 31.7569 387.2 31.7569C384.574 31.7569 382.445 33.8858 382.445 36.512C382.445 39.1381 384.574 41.2671 387.2 41.2671Z" fill="#5A2BBF"/>
<path opacity="0.1" d="M402.823 84.0628C405.45 84.0628 407.579 81.9339 407.579 79.3077C407.579 76.6816 405.45 74.5526 402.823 74.5526C400.197 74.5526 398.068 76.6816 398.068 79.3077C398.068 81.9339 400.197 84.0628 402.823 84.0628Z" fill="#5A2BBF"/>
</g>
<defs>
<linearGradient id="paint0_linear_826_104" x1="261.231" y1="479.163" x2="261.231" y2="111.914" gradientUnits="userSpaceOnUse">
<stop stop-color="#808080" stop-opacity="0.25"/>
<stop offset="0.54" stop-color="#808080" stop-opacity="0.12"/>
<stop offset="1" stop-color="#808080" stop-opacity="0.1"/>
</linearGradient>
<linearGradient id="paint1_linear_826_104" x1="443.581" y1="476.724" x2="443.581" y2="109.876" gradientUnits="userSpaceOnUse">
<stop stop-color="#808080" stop-opacity="0.25"/>
<stop offset="0.54" stop-color="#808080" stop-opacity="0.12"/>
<stop offset="1" stop-color="#808080" stop-opacity="0.1"/>
</linearGradient>
<clipPath id="clip0_826_104">
<rect width="735" height="492.491" fill="white" transform="translate(0 0.509216)"/>
</clipPath>
</defs>
</svg>
