<svg width="735" height="493" viewBox="0 0 735 493" fill="none" xmlns="http://www.w3.org/2000/svg">
<g clip-path="url(#clip0_826_104)">
<g opacity="0.2">
<path d="M254.431 452.697C254.8 454.211 255.291 455.692 255.898 457.126C265.34 453.418 274.887 449.863 284.537 446.461C284.456 446.061 284.374 445.64 284.273 445.225C283.3 440.952 281.225 437.008 278.254 433.786C274.396 429.71 269.423 427.74 264.586 428.942C259.75 430.145 256.238 434.261 254.635 439.675C253.436 443.925 253.366 448.413 254.431 452.697Z" fill="#3F3D56"/>
<path d="M267.998 444.594C276.287 442.743 280.999 432.251 278.522 421.161C276.045 410.07 267.317 402.58 259.028 404.432C250.738 406.283 246.026 416.775 248.503 427.865C250.98 438.956 259.708 446.445 267.998 444.594Z" fill="#3F3D56"/>
<path d="M262.181 420.128C270.47 418.277 275.182 407.785 272.705 396.695C270.228 385.604 261.5 378.115 253.211 379.966C244.921 381.817 240.209 392.309 242.686 403.4C245.163 414.49 253.891 421.98 262.181 420.128Z" fill="#3F3D56"/>
<path d="M256.352 395.678C264.641 393.826 269.353 383.335 266.876 372.244C264.399 361.154 255.671 353.664 247.382 355.515C239.092 357.367 234.38 367.858 236.857 378.949C239.334 390.039 248.062 397.529 256.352 395.678Z" fill="#3F3D56"/>
<path d="M250.523 371.22C258.813 369.369 263.525 358.877 261.048 347.787C258.571 336.696 249.843 329.206 241.553 331.058C233.264 332.909 228.552 343.401 231.029 354.491C233.506 365.582 242.234 373.072 250.523 371.22Z" fill="#3F3D56"/>
<path d="M262.032 169.784C263.446 166.613 264.639 163.349 265.605 160.015L224.848 163.222L267.331 152.944C269.361 142.26 269.104 131.268 266.577 120.691C264.361 111.327 260.39 102.469 254.872 94.5854L205.148 139.045L248.195 86.4202C230.622 67.658 204.041 58.7321 177.623 65.362C138.149 75.2322 113.959 116.017 123.591 156.456C127.42 172.79 136.599 187.375 149.67 197.893C147.474 202.83 145.805 207.985 144.69 213.272L202.037 227.633L143.332 222.545C142.63 230.741 143.244 238.997 145.152 246.999C148.988 263.332 158.169 277.916 171.237 288.436C164.369 303.858 162.784 321.115 166.727 337.529C176.359 377.968 216.166 402.742 255.64 392.878C295.114 383.015 319.304 342.23 309.671 301.792C305.836 285.459 296.655 270.875 283.586 260.354C290.454 244.933 292.04 227.676 288.097 211.262C284.279 194.915 275.104 180.315 262.032 169.784Z" fill="#5051F9"/>
<path opacity="0.1" d="M145.166 246.972C149.002 263.305 158.182 277.889 171.251 288.409C164.383 303.831 162.797 321.088 166.74 337.502C176.373 377.941 216.18 402.715 255.654 392.851C295.128 382.988 319.317 342.203 309.685 301.764C305.849 285.432 296.669 270.848 283.6 260.327C290.216 245.478 143.21 238.773 145.166 246.972Z" fill="black"/>
</g>
<g opacity="0.2">
<path d="M437.631 445.232C437.383 447.001 437.286 448.787 437.339 450.571C449.181 450.762 461.069 451.16 473.002 451.767C473.083 451.298 473.165 450.823 473.233 450.34C474.002 445.36 473.427 440.264 471.568 435.579C469.109 429.588 464.524 425.302 458.784 424.473C453.044 423.644 447.447 426.47 443.405 431.51C440.292 435.488 438.299 440.226 437.631 445.232Z" fill="#3F3D56"/>
<path d="M477.354 421.881C479.204 409.01 472.732 397.43 462.899 396.017C453.066 394.603 443.595 403.891 441.744 416.762C439.894 429.633 446.366 441.213 456.199 442.626C466.032 444.04 475.504 434.752 477.354 421.881Z" fill="#3F3D56"/>
<path d="M481.446 393.395C483.297 380.524 476.825 368.944 466.992 367.531C457.158 366.117 447.687 375.405 445.837 388.276C443.987 401.147 450.458 412.727 460.292 414.141C470.125 415.554 479.596 406.266 481.446 393.395Z" fill="#3F3D56"/>
<path d="M485.538 364.916C487.388 352.045 480.916 340.465 471.083 339.051C461.25 337.638 451.779 346.926 449.928 359.797C448.078 372.668 454.55 384.248 464.383 385.661C474.217 387.075 483.688 377.787 485.538 364.916Z" fill="#3F3D56"/>
<path d="M489.637 336.431C491.487 323.56 485.016 311.98 475.182 310.566C465.349 309.153 455.878 318.441 454.028 331.312C452.177 344.183 458.649 355.763 468.482 357.176C478.316 358.59 487.787 349.301 489.637 336.431Z" fill="#3F3D56"/>
<path d="M566.466 148.508C569.346 145.756 572.029 142.805 574.496 139.677L528.826 125.33L579.359 132.973C585.728 123.11 590.019 112.052 591.968 100.475C593.918 88.898 593.485 77.0448 590.697 65.6406L517.767 91.0735L586.974 54.0517C582.566 43.0749 575.945 33.1234 567.524 24.8171C559.102 16.5108 549.06 10.0277 538.023 5.77169C526.987 1.51568 515.192 -0.422059 503.374 0.0791937C491.555 0.580446 479.967 3.50995 469.33 8.6852C458.694 13.8604 449.237 21.1706 441.549 30.1601C433.86 39.1497 428.106 49.6262 424.643 60.9368C421.18 72.2474 420.084 84.15 421.422 95.9028C422.76 107.656 426.504 119.007 432.42 129.25C427.946 133.525 423.945 138.269 420.485 143.4L476.67 183.669L415.051 152.638C408.569 165.422 405.377 179.62 405.763 193.948C406.15 208.276 410.103 222.282 417.265 234.697C405.564 245.854 397.238 260.077 393.239 275.742C389.241 291.407 389.731 307.881 394.654 323.28C399.577 338.68 408.733 352.383 421.077 362.824C433.421 373.265 448.454 380.022 464.456 382.321C480.459 384.621 496.786 382.372 511.571 375.83C526.355 369.288 539 358.718 548.061 345.328C557.121 331.938 562.231 316.269 562.806 300.112C563.38 283.955 559.397 267.962 551.311 253.962C565.295 240.629 574.392 222.983 577.141 203.858C579.889 184.733 576.13 165.239 566.466 148.508Z" fill="#5051F9"/>
<path opacity="0.1" d="M406.594 179.348C403.816 198.473 407.576 217.976 417.265 234.697C405.564 245.853 397.238 260.077 393.239 275.742C389.241 291.407 389.731 307.881 394.654 323.28C399.577 338.68 408.733 352.383 421.077 362.824C433.421 373.265 448.454 380.021 464.456 382.321C480.459 384.621 496.786 382.372 511.571 375.83C526.355 369.288 539 358.718 548.061 345.328C557.121 331.938 562.231 316.269 562.806 300.112C563.38 283.955 559.397 267.962 551.311 253.962C564.829 241.089 407.973 169.777 406.594 179.348Z" fill="black"/>
</g>
<path opacity="0.1" d="M367.5 492.491C570.465 492.491 735 483.063 735 471.433C735 459.803 570.465 450.375 367.5 450.375C164.535 450.375 0 459.803 0 471.433C0 483.063 164.535 492.491 367.5 492.491Z" fill="#5051F9"/>
<path d="M607.768 462.948C617.259 462.948 624.954 461.467 624.954 459.64C624.954 457.813 617.259 456.332 607.768 456.332C598.276 456.332 590.582 457.813 590.582 459.64C590.582 461.467 598.276 462.948 607.768 462.948Z" fill="#5051F9"/>
<path d="M607.482 460.863C608.589 460.863 609.486 459.689 609.486 458.241C609.486 456.792 608.589 455.618 607.482 455.618C606.375 455.618 605.478 456.792 605.478 458.241C605.478 459.689 606.375 460.863 607.482 460.863Z" fill="#3F3D56"/>
<path d="M607.482 457.657C608.589 457.657 609.486 456.483 609.486 455.034C609.486 453.586 608.589 452.412 607.482 452.412C606.375 452.412 605.478 453.586 605.478 455.034C605.478 456.483 606.375 457.657 607.482 457.657Z" fill="#3F3D56"/>
<path d="M607.482 454.457C608.589 454.457 609.486 453.283 609.486 451.835C609.486 450.387 608.589 449.213 607.482 449.213C606.375 449.213 605.478 450.387 605.478 451.835C605.478 453.283 606.375 454.457 607.482 454.457Z" fill="#3F3D56"/>
<path d="M607.482 451.257C608.589 451.257 609.486 450.083 609.486 448.635C609.486 447.187 608.589 446.013 607.482 446.013C606.375 446.013 605.478 447.187 605.478 448.635C605.478 450.083 606.375 451.257 607.482 451.257Z" fill="#3F3D56"/>
<path d="M607.482 448.051C608.589 448.051 609.486 446.877 609.486 445.429C609.486 443.981 608.589 442.807 607.482 442.807C606.375 442.807 605.478 443.981 605.478 445.429C605.478 446.877 606.375 448.051 607.482 448.051Z" fill="#3F3D56"/>
<path d="M607.482 444.852C608.589 444.852 609.486 443.678 609.486 442.23C609.486 440.782 608.589 439.608 607.482 439.608C606.375 439.608 605.478 440.782 605.478 442.23C605.478 443.678 606.375 444.852 607.482 444.852Z" fill="#3F3D56"/>
<path d="M607.482 441.652C608.589 441.652 609.486 440.478 609.486 439.03C609.486 437.582 608.589 436.408 607.482 436.408C606.375 436.408 605.478 437.582 605.478 439.03C605.478 440.478 606.375 441.652 607.482 441.652Z" fill="#3F3D56"/>
<path d="M614.968 417.123C615.244 416.774 615.493 416.406 615.716 416.022L610.458 415.159L616.144 415.2C616.688 414.013 616.985 412.727 617.017 411.422C617.048 410.116 616.814 408.818 616.327 407.606L608.698 411.566L615.736 406.39C615.079 405.244 614.193 404.247 613.133 403.459C612.073 402.672 610.862 402.112 609.576 401.815C608.29 401.517 606.956 401.488 605.658 401.73C604.36 401.972 603.126 402.479 602.033 403.22C600.94 403.961 600.012 404.919 599.306 406.035C598.601 407.151 598.134 408.401 597.934 409.706C597.733 411.011 597.805 412.344 598.144 413.62C598.482 414.896 599.081 416.088 599.902 417.123C599.477 417.664 599.11 418.25 598.808 418.868L605.601 422.414L598.326 419.969C597.816 421.482 597.693 423.1 597.968 424.673C598.244 426.246 598.908 427.726 599.902 428.976C598.789 430.39 598.098 432.088 597.905 433.877C597.713 435.665 598.027 437.472 598.813 439.09C599.599 440.708 600.824 442.072 602.349 443.027C603.874 443.981 605.636 444.487 607.435 444.487C609.234 444.487 610.996 443.981 612.521 443.027C614.046 442.072 615.271 440.708 616.057 439.09C616.843 437.472 617.157 435.665 616.965 433.877C616.772 432.088 616.08 430.39 614.968 428.976C616.297 427.288 617.02 425.202 617.02 423.053C617.02 420.904 616.297 418.818 614.968 417.129V417.123Z" fill="#5051F9"/>
<path opacity="0.1" d="M597.85 423.046C597.844 425.194 598.562 427.281 599.888 428.97C598.776 430.383 598.084 432.082 597.891 433.87C597.699 435.658 598.014 437.465 598.8 439.083C599.585 440.701 600.811 442.065 602.335 443.02C603.86 443.974 605.623 444.48 607.421 444.48C609.22 444.48 610.983 443.974 612.507 443.02C614.032 442.065 615.257 440.701 616.043 439.083C616.829 437.465 617.144 435.658 616.951 433.87C616.759 432.082 616.067 430.383 614.955 428.97C616.252 427.339 597.85 421.973 597.85 423.046Z" fill="black"/>
<path d="M213.096 489.556C225.776 489.556 236.056 487.579 236.056 485.141C236.056 482.702 225.776 480.725 213.096 480.725C200.415 480.725 190.135 482.702 190.135 485.141C190.135 487.579 200.415 489.556 213.096 489.556Z" fill="#5051F9"/>
<path d="M212.708 486.764C214.187 486.764 215.385 485.198 215.385 483.266C215.385 481.334 214.187 479.768 212.708 479.768C211.23 479.768 210.032 481.334 210.032 483.266C210.032 485.198 211.23 486.764 212.708 486.764Z" fill="#3F3D56"/>
<path d="M212.708 482.485C214.187 482.485 215.385 480.918 215.385 478.986C215.385 477.054 214.187 475.488 212.708 475.488C211.23 475.488 210.032 477.054 210.032 478.986C210.032 480.918 211.23 482.485 212.708 482.485Z" fill="#3F3D56"/>
<path d="M212.708 478.205C214.187 478.205 215.385 476.639 215.385 474.707C215.385 472.775 214.187 471.208 212.708 471.208C211.23 471.208 210.032 472.775 210.032 474.707C210.032 476.639 211.23 478.205 212.708 478.205Z" fill="#3F3D56"/>
<path d="M212.708 473.932C214.187 473.932 215.385 472.366 215.385 470.434C215.385 468.502 214.187 466.936 212.708 466.936C211.23 466.936 210.032 468.502 210.032 470.434C210.032 472.366 211.23 473.932 212.708 473.932Z" fill="#3F3D56"/>
<path d="M212.708 469.653C214.187 469.653 215.385 468.086 215.385 466.154C215.385 464.222 214.187 462.656 212.708 462.656C211.23 462.656 210.032 464.222 210.032 466.154C210.032 468.086 211.23 469.653 212.708 469.653Z" fill="#3F3D56"/>
<path d="M212.708 465.373C214.187 465.373 215.385 463.807 215.385 461.875C215.385 459.943 214.187 458.376 212.708 458.376C211.23 458.376 210.032 459.943 210.032 461.875C210.032 463.807 211.23 465.373 212.708 465.373Z" fill="#3F3D56"/>
<path d="M212.708 461.1C214.187 461.1 215.385 459.534 215.385 457.602C215.385 455.67 214.187 454.104 212.708 454.104C211.23 454.104 210.032 455.67 210.032 457.602C210.032 459.534 211.23 461.1 212.708 461.1Z" fill="#3F3D56"/>
<path d="M222.721 428.331C223.084 427.864 223.415 427.374 223.713 426.864L216.696 425.709L224.291 425.77C225.021 424.185 225.42 422.467 225.462 420.721C225.504 418.976 225.189 417.24 224.535 415.622L214.346 420.906L223.74 414.032C222.856 412.517 221.67 411.201 220.256 410.163C218.842 409.126 217.23 408.39 215.519 408.002C213.809 407.613 212.037 407.58 210.314 407.905C208.59 408.229 206.952 408.904 205.5 409.888C204.048 410.872 202.813 412.143 201.873 413.624C200.933 415.104 200.307 416.762 200.034 418.494C199.761 420.227 199.846 421.997 200.286 423.695C200.725 425.393 201.508 426.982 202.587 428.365C202.019 429.091 201.53 429.874 201.127 430.702L210.249 435.457L200.522 432.196C199.838 434.212 199.666 436.367 200.021 438.466C200.377 440.565 201.249 442.542 202.56 444.22C201.075 446.109 200.152 448.378 199.895 450.766C199.639 453.155 200.06 455.568 201.11 457.729C202.16 459.89 203.797 461.712 205.834 462.987C207.87 464.262 210.224 464.938 212.627 464.938C215.03 464.938 217.384 464.262 219.42 462.987C221.457 461.712 223.094 459.89 224.144 457.729C225.194 455.568 225.615 453.155 225.359 450.766C225.102 448.378 224.179 446.109 222.694 444.22C224.468 441.962 225.432 439.174 225.432 436.303C225.432 433.432 224.468 430.644 222.694 428.386L222.721 428.331Z" fill="#5051F9"/>
<path opacity="0.1" d="M199.849 436.245C199.841 439.115 200.798 441.905 202.566 444.166C201.082 446.055 200.158 448.323 199.902 450.712C199.646 453.101 200.067 455.514 201.117 457.675C202.167 459.836 203.804 461.658 205.84 462.933C207.877 464.207 210.231 464.883 212.634 464.883C215.036 464.883 217.39 464.207 219.427 462.933C221.464 461.658 223.101 459.836 224.151 457.675C225.201 455.514 225.622 453.101 225.365 450.712C225.109 448.323 224.186 446.055 222.701 444.166C224.433 441.985 199.849 434.812 199.849 436.245Z" fill="black"/>
<path d="M333.984 290.692C332.251 281.63 330.315 272.548 329.996 263.33C329.806 257.895 330.186 252.366 329.487 246.945C329.14 244.282 328.536 241.667 327.938 239.052L325.533 228.584C325.806 226.577 325.728 224.538 325.302 222.558C325.061 221.514 324.741 220.49 324.344 219.495C326.589 216.335 328.439 212.914 329.853 209.305C330.492 207.675 331.042 205.943 330.791 204.217C330.302 200.909 327.095 198.729 324.113 197.098C322.306 196.113 320.404 195.162 318.339 195.006C316.895 194.948 315.457 195.224 314.137 195.813C312.818 196.402 311.652 197.289 310.731 198.402C310.229 195.724 310.397 192.964 311.22 190.366C309.447 189.572 307.661 188.824 305.861 188.098C305.6 185.75 305.51 183.387 305.589 181.026C305.63 178.193 305.677 175.334 305.84 172.494C310.671 170.731 314.847 167.532 317.807 163.327C320.768 159.122 322.371 154.112 322.402 148.97C322.402 148.678 322.402 148.393 322.402 148.107C323.718 145.741 324.551 143.136 324.852 140.444C325.153 137.753 324.916 135.028 324.154 132.429C322.164 125.636 316.96 120.039 310.69 116.581C304.421 113.123 297.152 111.663 289.958 111.405C287.544 111.264 285.121 111.416 282.744 111.86C280.2 112.486 277.734 113.398 275.394 114.577C271.801 116.235 268.18 118.048 265.49 120.908C260.823 125.887 259.777 133.203 260.287 139.929C260.966 148.759 263.914 157.305 267.324 165.524C268.458 168.242 269.668 171 271.536 173.316C272.983 175.103 275.496 175.211 277.493 173.961C277.335 176.131 277.285 178.308 277.344 180.483C273.655 180.354 270.062 180.958 267.1 183.037C265.741 184.008 264.451 185.537 264.75 187.18C265.657 187.205 266.526 187.548 267.205 188.151C267.884 188.754 268.328 189.577 268.458 190.475C268.608 191.922 267.881 193.301 267.175 194.551C266.869 195.108 266.563 195.672 266.251 196.229C263.33 199.353 260.334 203.266 260.069 207.145C259.593 207.19 259.119 207.261 258.649 207.356C256 207.845 253.364 208.748 250.763 209.427L231.933 214.386L227.279 215.677L219.807 217.647C215.052 218.897 210.209 220.181 205.99 222.694C201.772 225.208 198.192 229.154 197.343 233.909C196.922 236.273 197.18 238.732 196.664 241.076C196.664 241.185 196.623 241.287 196.596 241.388C196.164 242.872 195.584 244.308 194.863 245.675C190.645 254.567 187.642 264.26 188.206 274.049C188.553 280.061 190.244 285.923 191.888 291.711C193.613 297.63 195.316 303.549 196.996 309.468C198.104 313.705 199.509 317.859 201.201 321.899C204.1 328.37 208.399 334.117 213.789 338.725C215.301 340.082 216.992 341.224 218.815 342.122C221.595 343.323 224.629 343.816 227.646 343.555C228.461 343.5 229.263 343.412 230.058 343.283C235.893 342.359 241.334 339.547 246.327 336.381C248.415 335.059 250.453 333.667 252.441 332.204C252.693 334.486 253.148 336.741 253.799 338.942C254.241 340.457 254.784 342.013 254.608 343.582C254.363 345.769 252.773 347.563 251.952 349.614C250.206 353.948 251.999 358.778 252.291 363.424C252.57 367.779 251.51 372.099 250.661 376.385C249.243 383.534 248.405 390.785 248.154 398.068C248.147 400.826 247.965 403.58 247.611 406.315C246.979 410.174 245.498 413.896 245.24 417.795C244.846 423.868 247.468 429.812 247.23 435.892C246.952 443.031 242.761 449.967 244.221 456.95C244.405 457.826 244.9 458.838 245.702 459.063L245.308 459.423C244.106 460.537 242.937 462.595 244.303 463.498C244.617 463.685 244.966 463.805 245.328 463.852C247.441 464.293 249.567 464.694 251.693 465.068C251.647 467.032 251.894 468.992 252.427 470.882C252.814 471.161 253.208 471.412 253.602 471.65C253.303 472.452 253.324 473.226 254.03 473.688C254.344 473.875 254.693 473.995 255.056 474.041C272.554 477.652 290.425 479.134 308.279 478.457C311.472 478.334 314.807 478.103 317.531 476.473C320.255 474.843 322.096 471.372 320.798 468.512C319.65 465.985 316.648 464.891 313.951 464.049L310.786 463.07C311.191 462.352 311.428 461.55 311.477 460.726C311.526 459.902 311.387 459.078 311.071 458.315C309.923 455.788 306.92 454.695 304.224 453.852L296.935 451.59C295.975 451.363 295.073 450.94 294.285 450.347C293.763 449.828 293.282 449.269 292.845 448.676C291.794 447.474 290.412 446.607 288.871 446.183C288.789 444.639 288.823 443.09 288.973 441.55L291.011 416.953C291.466 411.383 291.915 405.704 290.617 400.263C290.094 398.055 289.259 395.793 289.768 393.578C290.563 389.964 294.367 387.954 296.962 385.27C300.875 381.195 302.091 375.4 302.987 369.884C306.7 347.122 307.867 324.017 306.465 300.997C314.62 298.698 323.013 297.349 331.477 296.975C332.917 296.914 333.623 296.235 334.072 294.89C334.52 293.545 334.248 292.084 333.984 290.692ZM293.328 291.894C293.375 291.656 293.429 291.419 293.47 291.181L294.034 291.901L293.328 291.894Z" fill="url(#paint0_linear_826_104)"/>
<path d="M280.081 167.209C279.905 169.573 279.069 171.842 278.763 174.199C278.417 176.794 278.723 179.437 278.553 182.052C278.383 184.667 277.629 187.418 275.639 189.123C287.207 190.125 298.601 192.59 309.549 196.46C306.241 192.384 306.153 186.691 306.234 181.461C306.343 173.724 306.479 165.837 309.006 158.535C301.469 156.85 293.664 156.748 286.086 158.236C284.442 158.562 279.463 158.358 278.723 159.893C278.186 161.021 280.203 165.497 280.081 167.209Z" fill="#A1616A"/>
<path opacity="0.1" d="M280.081 167.209C279.905 169.573 279.069 171.842 278.763 174.199C278.417 176.794 278.723 179.437 278.553 182.052C278.383 184.667 277.629 187.418 275.639 189.123C287.207 190.125 298.601 192.59 309.549 196.46C306.241 192.384 306.153 186.691 306.234 181.461C306.343 173.724 306.479 165.837 309.006 158.535C301.469 156.85 293.664 156.748 286.086 158.236C284.442 158.562 279.463 158.358 278.723 159.893C278.186 161.021 280.203 165.497 280.081 167.209Z" fill="black"/>
<path d="M293.776 448.71C294.184 449.313 294.638 449.883 295.134 450.415C295.899 451.008 296.782 451.432 297.723 451.658L304.842 453.92C307.484 454.763 310.419 455.85 311.539 458.377C312.803 461.23 311.003 464.701 308.34 466.324C305.677 467.948 302.417 468.186 299.299 468.308C281.841 468.981 264.367 467.5 247.271 463.899C246.918 463.848 246.579 463.728 246.273 463.546C244.914 462.629 246.076 460.578 247.251 459.47C251.836 455.123 256.822 450.565 263.065 449.559C266.346 449.023 269.64 449.24 272.901 448.459C275.245 447.895 277.459 446.924 279.796 446.346C284.15 445.28 290.665 444.899 293.776 448.71Z" fill="#46455B"/>
<path opacity="0.1" d="M293.776 448.71C294.184 449.313 294.638 449.883 295.134 450.415C295.899 451.008 296.782 451.432 297.723 451.658L304.842 453.92C307.484 454.763 310.419 455.85 311.539 458.377C312.803 461.23 311.003 464.701 308.34 466.324C305.677 467.948 302.417 468.186 299.299 468.308C281.841 468.981 264.367 467.5 247.271 463.899C246.918 463.848 246.579 463.728 246.273 463.546C244.914 462.629 246.076 460.578 247.251 459.47C251.836 455.123 256.822 450.565 263.065 449.559C266.346 449.023 269.64 449.24 272.901 448.459C275.245 447.895 277.459 446.924 279.796 446.346C284.15 445.28 290.665 444.899 293.776 448.71Z" fill="black"/>
<path d="M258.031 295.067C254.518 304.337 254.302 314.533 257.42 323.944C255.049 323.685 254.023 326.892 254.084 329.283C254.169 332.612 254.673 335.917 255.586 339.119C256.02 340.641 256.55 342.189 256.38 343.752C256.136 345.939 254.587 347.732 253.779 349.777C252.08 354.104 253.826 358.927 254.118 363.567C254.39 367.921 253.351 372.235 252.515 376.514C251.131 383.655 250.313 390.894 250.07 398.164C250.065 400.919 249.886 403.671 249.533 406.403C248.922 410.262 247.495 413.978 247.224 417.87C246.836 423.929 249.397 429.873 249.166 435.946C248.895 443.072 244.792 450.001 246.225 457.004C246.429 457.989 246.979 459.151 247.991 459.165C258.235 459.294 267.806 456.447 277.941 457.935C278.974 434.486 279.979 410.928 284.598 387.906C288.674 367.412 295.583 347.148 294.937 326.253C294.564 314.304 291.724 302.586 289.999 290.753C279.169 288.348 267.837 289.877 258.031 295.067Z" fill="#BBBDC8"/>
<path opacity="0.1" d="M258.031 295.067C254.518 304.337 254.302 314.533 257.42 323.944C255.049 323.685 254.023 326.892 254.084 329.283C254.169 332.612 254.673 335.917 255.586 339.119C256.02 340.641 256.55 342.189 256.38 343.752C256.136 345.939 254.587 347.732 253.779 349.777C252.08 354.104 253.826 358.927 254.118 363.567C254.39 367.921 253.351 372.235 252.515 376.514C251.131 383.655 250.313 390.894 250.07 398.164C250.065 400.919 249.886 403.671 249.533 406.403C248.922 410.262 247.495 413.978 247.224 417.87C246.836 423.929 249.397 429.873 249.166 435.946C248.895 443.072 244.792 450.001 246.225 457.004C246.429 457.989 246.979 459.151 247.991 459.165C258.235 459.294 267.806 456.447 277.941 457.935C278.974 434.486 279.979 410.928 284.598 387.906C288.674 367.412 295.583 347.148 294.937 326.253C294.564 314.304 291.724 302.586 289.999 290.753C279.169 288.348 267.837 289.877 258.031 295.067Z" fill="black"/>
<path d="M303.286 458.9C303.694 459.502 304.148 460.072 304.645 460.605C305.41 461.198 306.292 461.621 307.233 461.848L314.352 464.11C316.994 464.952 319.929 466.039 321.05 468.566C322.313 471.419 320.513 474.89 317.85 476.514C315.187 478.137 311.927 478.375 308.809 478.497C291.351 479.17 273.877 477.689 256.781 474.089C256.428 474.038 256.089 473.918 255.783 473.735C254.424 472.818 255.586 470.767 256.761 469.66C261.346 465.312 266.332 460.754 272.575 459.749C275.856 459.212 279.151 459.429 282.411 458.648C284.755 458.084 286.969 457.113 289.306 456.536C293.66 455.469 300.175 455.089 303.286 458.9Z" fill="#46455B"/>
<path d="M261.563 295.739C258.941 299.135 258.167 303.619 258.52 307.871C258.873 312.124 260.307 316.206 261.713 320.234C259.845 321.953 260.232 324.915 260.477 327.442C261.367 336.83 258.106 346.197 258.581 355.612C258.778 359.573 259.641 363.479 259.845 367.439C260.069 371.766 259.519 376.093 259.003 380.393C255.705 407.921 253.891 435.606 253.568 463.329C253.568 465.883 253.527 468.478 254.247 470.923C259.186 474.557 265.388 475.046 271.366 473.688C277.344 472.329 282.798 469.3 288.158 466.311C291.094 464.791 293.878 462.994 296.473 460.944C297.266 460.383 297.853 459.576 298.144 458.648C298.714 455.931 294.937 454.701 292.77 452.942C289.618 450.381 289.666 445.64 289.992 441.591L291.962 417.028C292.41 411.464 292.845 405.792 291.582 400.358C291.065 398.157 290.271 395.895 290.746 393.68C291.521 390.08 295.243 388.069 297.777 385.386C301.608 381.31 302.79 375.529 303.673 370.027C307.835 343.923 308.72 317.402 306.309 291.079C301.316 292.811 295.399 291.867 290.135 292.275C284.87 292.682 279.64 294.442 274.307 294.584C269.865 294.686 264.294 292.234 261.563 295.739Z" fill="#BBBDC8"/>
<path d="M297.532 174.579C311.414 174.579 322.666 163.327 322.666 149.445C322.666 135.564 311.414 124.311 297.532 124.311C283.651 124.311 272.398 135.564 272.398 149.445C272.398 163.327 283.651 174.579 297.532 174.579Z" fill="#A1616A"/>
<path d="M311.736 190.788C303.683 187.088 295.285 184.19 286.664 182.133C280.591 180.686 273.655 179.817 268.581 183.451C267.222 184.423 265.993 185.951 266.285 187.595C267.18 187.624 268.036 187.971 268.699 188.574C269.362 189.176 269.79 189.994 269.905 190.883C270.055 192.323 269.348 193.702 268.655 194.958L262.793 205.827C261.67 207.785 260.704 209.83 259.906 211.941C258.724 215.392 258.466 219.087 258.215 222.728L257.535 232.592C257.114 238.807 256.686 245.05 257.25 251.252C257.671 255.932 258.649 260.633 257.984 265.286C257.447 269.029 255.864 272.541 254.974 276.223C253.303 283.152 254.064 290.746 250.824 297.104C252.14 296.497 253.625 296.363 255.029 296.724C264.865 298.538 272.602 306.302 282.153 309.271C284.565 305.752 287.832 303.157 290.529 299.883C292.534 297.428 293.862 294.491 294.38 291.364C296.418 294.082 298.151 296.201 299.366 299.353C299.583 300.086 299.953 300.765 300.453 301.343C301.737 302.593 303.85 302.111 305.568 301.588C313.994 299.046 322.705 297.57 331.497 297.193C332.91 297.132 333.596 296.452 334.038 295.107C334.479 293.762 334.235 292.309 333.97 290.923C332.278 281.868 330.39 272.799 330.077 263.595C329.887 258.16 330.261 252.651 329.575 247.23C329.235 244.574 328.644 241.959 328.06 239.351L323.21 217.796C322.938 216.594 321.647 215.806 321.097 214.699C318.869 210.188 314.61 206.928 312.409 202.404C310.746 198.75 310.507 194.608 311.736 190.788Z" fill="#46455B"/>
<path d="M276.474 159.506C276.445 159.154 276.528 158.802 276.712 158.5C276.98 158.218 277.317 158.01 277.69 157.896C278.703 157.415 279.531 156.617 280.05 155.623C280.568 154.629 280.749 153.493 280.563 152.387L282.941 151.891L283.016 143.61C286.548 141.654 291.364 143.135 294.686 140.832C296.554 139.528 297.512 137.313 298.653 135.343C299.794 133.373 301.492 131.39 303.761 131.227C302.981 133.211 302.647 135.343 302.782 137.471C302.917 139.6 303.518 141.672 304.543 143.542C306.921 142.338 308.908 140.482 310.269 138.189L311.451 144.982C311.475 145.401 311.654 145.796 311.954 146.09C312.572 146.545 313.407 145.974 313.951 145.41L317.028 142.388C318.323 145.637 319.211 149.035 319.671 152.502C324.724 147.598 326.294 139.718 324.351 132.952C322.408 126.186 317.32 120.582 311.193 117.124C305.066 113.667 297.96 112.213 290.929 111.955C288.569 111.817 286.201 111.97 283.878 112.41C281.386 113.037 278.975 113.949 276.691 115.127C273.179 116.778 269.633 118.592 267.011 121.445C262.446 126.417 261.421 133.727 261.923 140.465C262.603 149.296 265.469 157.821 268.805 166.027C269.912 168.744 271.094 171.495 272.921 173.812C275.672 177.297 282.431 174.403 281.569 167.515C280.971 162.597 276.474 164.492 276.474 159.506Z" fill="#3F3D56"/>
<path d="M285.984 294.068C277.507 311.389 264.489 326.086 248.317 336.592C243.433 339.751 238.128 342.563 232.415 343.487C231.634 343.616 230.853 343.704 230.058 343.759C227.112 344.003 224.152 343.5 221.451 342.298C219.663 341.398 218.008 340.255 216.533 338.902C211.247 334.275 207.046 328.539 204.231 322.103C202.576 318.063 201.203 313.914 200.121 309.685C198.455 303.771 196.793 297.854 195.135 291.935C193.512 286.147 191.874 280.292 191.535 274.273C190.985 264.498 193.919 254.818 198.043 245.94C198.746 244.572 199.312 243.139 199.734 241.66C199.734 241.558 199.782 241.456 199.802 241.348C200.291 239.004 200.04 236.552 200.481 234.188C201.31 229.433 204.815 225.493 208.932 222.986C213.048 220.48 217.763 219.196 222.443 217.946L229.732 215.983L234.256 214.767L252.658 209.815C255.205 209.135 257.78 208.232 260.368 207.777C263.255 207.233 263.235 207.519 263.459 210.345C263.873 215.466 263.737 220.5 264.817 225.574C265.843 230.418 267.65 235.085 269.009 239.84C272.439 251.843 273.01 264.478 275.713 276.671C276.332 279.45 277.187 282.411 279.422 284.143C281.983 286.181 286.297 286.684 286.976 289.877C287.227 291.296 286.596 292.75 285.984 294.068Z" fill="#5051F9"/>
<path opacity="0.1" d="M232.415 343.46C231.634 343.589 230.853 343.677 230.058 343.731C227.114 343.984 224.154 343.491 221.451 342.298C219.663 341.398 218.008 340.255 216.533 338.902C211.247 334.275 207.046 328.539 204.231 322.103C202.576 318.063 201.203 313.914 200.121 309.685C198.455 303.771 196.793 297.854 195.135 291.935C193.512 286.147 191.874 280.292 191.535 274.273C190.985 264.498 193.919 254.818 198.043 245.94C198.746 244.572 199.312 243.139 199.734 241.66C199.734 241.558 199.782 241.456 199.802 241.348C210.888 243.297 224.189 264.505 231.05 292.295C236.104 313.075 236.321 332.211 232.415 343.46Z" fill="black"/>
<path opacity="0.1" d="M252.454 270.34L250.6 270.659C248.691 265.646 246.789 260.626 244.554 255.749C243.392 253.201 242.136 250.688 241.157 248.059C237.489 237.965 238.114 225.989 231.314 217.674C230.829 217.057 230.275 216.496 229.664 216.003L234.188 214.787C238.15 221.051 240.944 227.981 242.435 235.241C243.168 238.787 243.583 242.414 244.778 245.824C245.795 248.411 246.958 250.937 248.263 253.392C250.844 258.683 252.787 264.464 252.454 270.34Z" fill="black"/>
<path d="M270.51 193.804C275.394 189.619 282.058 187.323 288.382 188.369C292.105 188.974 295.562 190.652 298.898 192.445C305.399 195.896 311.804 199.87 316.491 205.542C319.302 209.119 321.636 213.047 323.434 217.226C324.316 219.052 324.999 220.967 325.472 222.939C327.129 230.615 323.06 238.243 319.141 245.05L311.601 258.133C308.136 264.145 304.645 270.198 300.134 275.476C298.055 277.908 295.773 280.156 293.497 282.405L283.505 292.268C283.325 292.48 283.09 292.637 282.825 292.723C282.607 292.735 282.389 292.699 282.186 292.618C281.983 292.537 281.801 292.413 281.65 292.254L278.349 289.625C281.39 287.525 284.216 285.129 286.786 282.472C291.106 278.003 294.659 272.86 298.191 267.738L309.182 251.802C312.395 247.135 315.751 242 315.391 236.348C315.221 233.631 314.202 231.077 313.136 228.584C311.247 224.15 309.196 219.787 306.981 215.494C304.495 210.677 301.778 205.922 298.198 201.853C294.618 197.784 290.094 194.381 284.884 192.907C283.33 192.399 281.683 192.242 280.061 192.445C276.488 193.036 273.947 196.107 271.685 198.96L264.797 207.79C263.228 209.794 261.788 212.118 261.693 208.313C261.529 202.886 267.018 197.295 270.51 193.804Z" fill="#5051F9"/>
<path d="M272.643 253.378C274.001 258.609 276.005 264.546 281.039 266.529C284.605 267.935 288.783 266.794 291.867 264.491C294.951 262.188 297.138 258.941 299.149 255.66C300.851 252.712 302.727 249.867 304.767 247.142C308.795 242.088 314.277 238.08 316.994 232.197C317.796 230.445 318.353 228.57 319.263 226.885C320.236 225.332 321.335 223.862 322.551 222.49C325.678 218.615 328.179 214.274 329.962 209.624C330.587 208.001 331.124 206.262 330.879 204.543C330.397 201.235 327.265 199.061 324.351 197.438C322.578 196.453 320.724 195.495 318.706 195.346C315.758 195.115 312.857 196.704 311.044 199.034C309.298 201.444 308.322 204.326 308.245 207.301C308.041 210.922 308.747 214.685 307.566 218.109C306.94 219.706 306.077 221.199 305.005 222.538C301.189 227.643 296.466 232.002 291.072 235.397C290.924 232.827 290.367 230.298 289.421 227.904C288.905 226.586 278.784 227.904 277.466 228.122C274.857 228.502 269.803 228.801 268.159 231.287C266.516 233.773 268.553 237.951 269.219 240.458L272.643 253.378Z" fill="#A1616A"/>
<path d="M272.398 196.297C270.895 197.539 269.495 198.902 268.214 200.372C265.198 204.007 263.724 208.735 263.343 213.442C262.963 218.15 263.608 222.878 264.417 227.531C265.15 231.706 266.018 235.852 267.018 239.969C267.297 236.864 269.81 234.297 272.724 233.176C275.639 232.055 278.838 232.177 281.943 232.632C285.938 233.224 289.836 234.351 293.531 235.981L294.965 215.894C295.266 213.185 295.25 210.449 294.917 207.743C294.466 205.232 293.485 202.846 292.039 200.743C290.594 198.641 288.717 196.87 286.535 195.549C281.087 192.234 277.289 192.024 272.398 196.297Z" fill="#46455B"/>
<path d="M529.023 294.041C528.379 288.59 526.793 283.292 524.336 278.383C522.835 275.394 521.008 272.534 520.064 269.335C519.296 266.733 519.146 263.995 518.535 261.353C517.924 258.711 516.844 256.184 515.974 253.602C509.827 235.261 514.446 215.195 512.462 195.971C511.722 188.879 509.548 181.101 503.4 177.405C499.746 175.211 495.357 174.872 491.058 174.688L489.094 174.6L485.942 174.444C481.378 174.219 476.799 174.05 472.356 175.007C466.922 176.196 460.482 180.021 458.77 185.571C457.833 185.088 456.889 184.66 456.019 184.26C452.52 182.707 448.852 181.567 445.089 180.863C448.317 180.05 451.433 178.846 454.369 177.276C461.162 173.323 462.738 161.775 464.123 154.051C465.509 146.328 464.246 138.346 461.943 130.84C461.182 128.176 460.146 125.599 458.852 123.15C457.064 119.924 454.63 117.102 451.702 114.859C448.774 112.616 445.415 111.002 441.835 110.115C438.255 109.229 434.53 109.091 430.894 109.709C427.258 110.327 423.789 111.688 420.703 113.708C414.365 117.858 408.475 123.897 403.639 129.732C402.959 130.534 400.12 133.373 401.064 134.569C401.594 135.248 403.34 134.705 405.174 133.89C403.763 137.077 403.036 140.525 403.041 144.011C403.045 148.389 404.189 152.691 406.36 156.493C408.532 160.295 411.655 163.466 415.424 165.694L416.104 171.944V171.991C416.179 174.077 416.212 176.162 416.24 178.241C416.24 179.701 416.24 181.196 416.199 182.69C413.38 185.88 409.929 188.447 406.064 190.231C409.256 190.76 412.3 190.013 415.261 188.736C414.78 190.405 413.972 191.961 412.884 193.315C413.699 193.029 414.514 192.771 415.329 192.499C414.903 193.184 414.524 193.896 414.195 194.632C413.692 195.796 413.325 197.013 413.101 198.26C411.372 200.787 409.873 203.465 408.625 206.262C408.054 207.532 407.545 208.823 407.083 210.134V210.222C406.63 211.527 406.229 212.849 405.88 214.189C405.717 214.832 405.568 215.478 405.432 216.125C405.432 216.173 405.432 216.22 405.432 216.268C405.16 217.579 404.936 218.897 404.753 220.228C404.753 220.317 404.753 220.405 404.753 220.5C404.678 221.118 404.61 221.743 404.563 222.368C404.563 222.368 404.563 222.429 404.563 222.463C404.508 223.143 404.467 223.788 404.447 224.454C404.447 224.542 404.447 224.623 404.447 224.712C404.447 225.275 404.447 225.846 404.447 226.41V226.797C404.447 228.074 404.529 229.358 404.651 230.642C404.651 230.798 404.651 230.961 404.698 231.117C404.753 231.641 404.814 232.164 404.889 232.693C404.889 232.816 404.889 232.938 404.936 233.053C405.024 233.685 405.126 234.31 405.242 234.935C405.242 235.071 405.303 235.214 405.33 235.349C405.425 235.852 405.527 236.348 405.643 236.851L405.765 237.367C405.914 237.992 406.071 238.61 406.247 239.235C406.349 239.588 406.451 239.914 406.56 240.288C406.884 241.576 407.111 242.886 407.239 244.208L403.523 244.33C395.571 244.556 387.625 244.916 379.687 245.41C378.695 241.585 375.312 239.378 371.053 238.855C370.377 238.773 369.696 238.732 369.015 238.732C369.75 238.114 370.402 237.404 370.958 236.62C371.697 235.603 372.223 234.448 372.506 233.223C371.412 233.846 370.455 234.685 369.694 235.689C369.443 236.029 369.219 236.368 369.015 236.681V234.643C369.016 234.6 369.008 234.557 368.992 234.517C368.976 234.477 368.952 234.441 368.921 234.41C368.891 234.38 368.855 234.356 368.815 234.34C368.775 234.324 368.732 234.316 368.689 234.317H368.01C367.966 234.316 367.924 234.324 367.884 234.34C367.844 234.356 367.807 234.38 367.777 234.41C367.746 234.441 367.722 234.477 367.706 234.517C367.69 234.557 367.683 234.6 367.683 234.643V238.794H367.548H367.317C366.868 238.834 366.434 238.889 366.006 238.97C361.38 239.833 357.99 242.801 357.99 247.801C357.991 249.375 358.334 250.931 358.996 252.359C359.657 253.788 360.621 255.056 361.821 256.075C362.02 257.632 362.373 259.166 362.874 260.653C363.343 262.127 363.954 263.731 365.326 264.464C366.165 264.845 367.084 265.013 368.003 264.953C375.557 264.953 382.703 261.468 390.223 260.878C394.869 260.504 399.536 261.224 404.196 261.081C404.875 261.081 405.554 261.013 406.234 260.959C399.862 292.512 392.152 324.467 396.18 356.339C396.445 358.459 396.859 360.755 398.442 362.195C400.541 364.11 403.775 363.798 406.594 363.553C414.33 362.848 422.13 363.47 429.656 365.394C430.714 365.687 431.826 365.726 432.903 365.51C433.133 365.457 433.36 365.392 433.582 365.313L433.772 365.238C433.915 365.184 434.051 365.129 434.18 365.068L434.377 364.966L434.71 364.762C434.764 364.722 434.825 364.688 434.873 364.647C434.991 364.566 435.102 364.475 435.206 364.375L435.301 364.294C435.428 364.169 435.548 364.038 435.661 363.9L435.742 363.778C435.821 363.675 435.894 363.569 435.96 363.458C435.994 363.404 436.028 363.35 436.055 363.295C436.082 363.241 436.163 363.091 436.211 362.99C436.259 362.888 436.265 362.867 436.286 362.806C436.306 362.745 436.374 362.582 436.415 362.466C436.456 362.351 436.415 362.358 436.469 362.297C436.523 362.236 436.564 361.957 436.598 361.787V361.678C436.598 361.536 436.653 361.386 436.673 361.244C436.693 361.101 436.673 361.094 436.673 361.02C436.673 360.945 436.673 360.795 436.673 360.687V360.442C436.673 360.333 436.673 360.225 436.673 360.116V359.512C436.673 359.444 436.673 359.369 436.673 359.294C436.673 358.69 436.605 358.078 436.544 357.494C437.029 357.635 437.524 357.742 438.025 357.813C438.492 357.887 438.965 357.922 439.438 357.915H439.506C439.73 357.915 439.954 357.915 440.185 357.861C440.382 357.831 440.577 357.79 440.769 357.739H440.857C441.035 357.686 441.208 357.618 441.374 357.535L441.455 357.487C441.596 357.409 441.731 357.318 441.856 357.215L441.917 357.168C442.044 357.049 442.158 356.917 442.257 356.774L442.318 356.672C442.419 356.508 442.498 356.333 442.556 356.149C442.943 354.838 442.06 353.357 443.473 352.155C444.831 356.509 446.19 360.87 446.414 365.374C446.489 367.018 446.414 368.77 447.379 370.129C448.006 370.871 448.688 371.565 449.417 372.208C451.495 374.456 451.543 377.846 451.4 380.889C451.339 382.119 451.271 383.348 451.183 384.578C450.06 400.985 446.724 417.165 441.265 432.679C440.733 434.329 440.037 435.922 439.186 437.434C437.808 439.573 436.084 441.469 434.085 443.045C431.253 445.45 428.218 447.607 425.016 449.491C423.38 450.356 421.835 451.382 420.404 452.555C420.349 452.399 420.288 452.249 420.248 452.086C420.173 451.774 420.071 451.407 419.765 451.291C419.533 451.239 419.29 451.278 419.086 451.4C415.9 452.799 412.714 454.199 409.65 455.836C408.104 456.541 406.741 457.594 405.67 458.913C404.692 460.272 404.399 462.31 405.412 463.668C406.302 464.857 407.898 465.251 409.372 465.516C411.26 465.849 413.156 466.087 415.051 466.263C414.077 466.834 413.225 467.591 412.544 468.491C411.566 469.85 411.274 471.888 412.286 473.246C413.176 474.435 414.772 474.829 416.246 475.094C428.29 477.22 440.64 475.773 452.867 475.413C456.841 475.284 460.903 475.257 464.667 473.966C465.409 473.747 466.101 473.385 466.705 472.9C468.416 471.392 468.247 468.743 467.948 466.494L466.705 457.31C466.521 457.31 466.345 457.371 466.168 457.412C467.209 448.784 469.077 440.277 471.745 432.006C475.889 419.133 482.057 406.451 481.975 392.98C481.975 392.654 481.975 392.301 481.975 392.002C481.86 387.784 481.106 383.613 480.617 379.415C479.849 372.391 479.937 365.306 479.985 358.248C479.926 355.481 480.119 352.713 480.562 349.981C480.562 349.886 480.603 349.798 480.624 349.702L491.907 349.404C493.157 349.467 494.404 349.234 495.548 348.724C496.088 348.487 496.522 348.058 496.766 347.52C497.009 346.982 497.044 346.373 496.865 345.81C501.675 347.991 508.108 345.022 509.528 339.968C509.626 339.613 509.706 339.252 509.765 338.888C509.762 338.861 509.762 338.834 509.765 338.807C509.813 338.467 509.847 338.127 509.86 337.794C509.86 337.74 509.86 337.679 509.86 337.625C509.931 335.291 509.569 332.965 508.794 330.764C506.484 324.222 502.816 318.265 499.365 312.239C497.586 309.121 495.86 305.962 494.182 302.79L495.656 304.685C496.174 305.458 496.853 306.11 497.647 306.594C500.398 308.014 503.278 305.154 506.077 303.836C509.793 302.084 514.14 303.116 518.243 303.408C522.346 303.7 527.291 302.641 528.759 298.837C529.234 297.283 529.325 295.637 529.023 294.041ZM458.288 191.949C458.288 193.403 458.383 194.877 458.499 196.358C457.12 194.104 455.528 191.989 453.744 190.04L458.288 191.949Z" fill="url(#paint1_linear_826_104)"/>
<path d="M369.538 236.912C370.29 235.916 371.235 235.082 372.316 234.46C372.04 235.683 371.521 236.838 370.788 237.856C369.606 239.466 368.363 240.573 368.016 240.308C367.67 240.043 368.342 238.522 369.538 236.912Z" fill="#99D55C"/>
<path opacity="0.1" d="M369.687 237.034C370.237 236.294 370.93 235.673 371.725 235.207C371.518 236.112 371.133 236.966 370.591 237.72C369.708 238.916 368.784 239.758 368.553 239.547C368.322 239.337 368.804 238.23 369.687 237.034Z" fill="black"/>
<path d="M367.887 235.56H368.566C368.609 235.56 368.652 235.568 368.691 235.585C368.731 235.601 368.767 235.625 368.797 235.656C368.827 235.686 368.851 235.722 368.868 235.761C368.884 235.801 368.892 235.843 368.892 235.886V243.583H367.602V235.886C367.601 235.806 367.63 235.729 367.682 235.669C367.735 235.609 367.808 235.57 367.887 235.56Z" fill="#F6987E"/>
<path d="M379.727 249.017C379.727 251.899 378.582 254.664 376.544 256.702C374.506 258.741 371.741 259.886 368.859 259.886C365.976 259.886 363.212 258.741 361.173 256.702C359.135 254.664 357.99 251.899 357.99 249.017C357.99 244.038 361.339 241.09 365.91 240.227C366.883 240.047 367.87 239.959 368.859 239.962C369.54 239.961 370.22 240.002 370.897 240.084C375.923 240.709 379.727 243.712 379.727 249.017Z" fill="#FC4A4A"/>
<path opacity="0.1" d="M370.896 240.084C370.699 240.458 369.633 240.763 368.342 240.763C367.5 240.825 366.657 240.648 365.91 240.254C366.883 240.075 367.87 239.986 368.859 239.989C369.539 239.979 370.22 240.011 370.896 240.084Z" fill="black"/>
<path opacity="0.1" d="M370.672 259.628C367.79 259.628 365.025 258.482 362.987 256.444C360.949 254.406 359.804 251.641 359.804 248.759C359.804 243.868 363.03 240.94 367.473 240.023C366.949 240.063 366.427 240.131 365.91 240.227C361.339 241.09 357.99 244.038 357.99 249.017C357.99 251.899 359.135 254.664 361.173 256.702C363.212 258.741 365.976 259.886 368.859 259.886C369.68 259.887 370.498 259.794 371.297 259.607C371.087 259.621 370.897 259.628 370.672 259.628Z" fill="black"/>
<path d="M418.583 460.802C420.084 462.16 422.38 462.126 424.418 461.977L433.704 461.297C441.081 460.754 448.71 460.143 455.218 456.631C455.906 456.316 456.517 455.852 457.004 455.272C457.521 454.384 457.791 453.373 457.785 452.344C458.664 442.283 460.665 432.351 463.75 422.734C467.825 409.929 473.939 397.308 473.858 383.905C473.858 383.579 473.858 383.226 473.858 382.934C473.742 378.736 473.002 374.585 472.546 370.407C471.792 363.417 471.867 356.373 471.921 349.349C471.863 346.596 472.054 343.842 472.492 341.123C472.92 338.915 474.53 336.701 473.545 334.758C471.636 330.988 464.714 329.602 460.992 329.466C455.978 329.29 451.047 330.601 446.203 331.905C444.729 332.306 443.187 332.734 442.073 333.773C440.579 335.172 440.151 337.366 440.096 339.411C439.838 348.48 445.062 356.917 445.476 365.972C445.551 367.602 445.476 369.368 446.427 370.727C447.055 371.467 447.736 372.159 448.465 372.799C450.503 375.033 450.564 378.403 450.422 381.432C450.361 382.655 450.293 383.878 450.211 385.101C449.101 401.42 445.805 417.516 440.409 432.957C439.889 434.606 439.206 436.199 438.371 437.712C437.008 439.837 435.305 441.723 433.331 443.296C430.533 445.686 427.535 447.831 424.371 449.709C422.258 450.959 420.003 452.154 418.556 454.138C417.109 456.121 416.79 459.13 418.583 460.802Z" fill="#FDA8A8"/>
<path opacity="0.1" d="M418.583 460.802C420.084 462.16 422.38 462.126 424.418 461.977L433.704 461.297C441.081 460.754 448.71 460.143 455.218 456.631C455.906 456.316 456.517 455.852 457.004 455.272C457.521 454.384 457.791 453.373 457.785 452.344C458.664 442.283 460.665 432.351 463.75 422.734C467.825 409.929 473.939 397.308 473.858 383.905C473.858 383.579 473.858 383.226 473.858 382.934C473.742 378.736 473.002 374.585 472.546 370.407C471.792 363.417 471.867 356.373 471.921 349.349C471.863 346.596 472.054 343.842 472.492 341.123C472.92 338.915 474.53 336.701 473.545 334.758C471.636 330.988 464.714 329.602 460.992 329.466C455.978 329.29 451.047 330.601 446.203 331.905C444.729 332.306 443.187 332.734 442.073 333.773C440.579 335.172 440.151 337.366 440.096 339.411C439.838 348.48 445.062 356.917 445.476 365.972C445.551 367.602 445.476 369.368 446.427 370.727C447.055 371.467 447.736 372.159 448.465 372.799C450.503 375.033 450.564 378.403 450.422 381.432C450.361 382.655 450.293 383.878 450.211 385.101C449.101 401.42 445.805 417.516 440.409 432.957C439.889 434.606 439.206 436.199 438.371 437.712C437.008 439.837 435.305 441.723 433.331 443.296C430.533 445.686 427.535 447.831 424.371 449.709C422.258 450.959 420.003 452.154 418.556 454.138C417.109 456.121 416.79 459.13 418.583 460.802Z" fill="black"/>
<path d="M418.583 460.802C420.084 462.16 422.38 462.126 424.418 461.977L433.704 461.298C441.081 460.754 448.71 460.143 455.218 456.631C455.906 456.316 456.517 455.852 457.004 455.272C457.521 454.384 457.791 453.373 457.785 452.344C458.664 442.283 460.665 432.351 463.75 422.734C467.825 409.929 473.939 397.308 473.858 383.905C466.006 384.773 458.11 385.163 450.211 385.074C449.102 401.393 445.805 417.489 440.409 432.93C439.889 434.579 439.206 436.172 438.371 437.685C437.008 439.81 435.305 441.696 433.331 443.269C430.533 445.658 427.535 447.804 424.371 449.681C422.258 450.931 420.003 452.127 418.556 454.111C417.109 456.094 416.79 459.131 418.583 460.802Z" fill="#EEEFF3"/>
<path opacity="0.1" d="M418.583 460.802C420.084 462.16 422.38 462.126 424.418 461.977L433.704 461.298C441.081 460.754 448.71 460.143 455.218 456.631C455.906 456.316 456.517 455.852 457.004 455.272C457.521 454.384 457.791 453.373 457.785 452.344C458.664 442.283 460.665 432.351 463.75 422.734C467.825 409.929 473.939 397.308 473.858 383.905C466.006 384.773 458.11 385.163 450.211 385.074C449.102 401.393 445.805 417.489 440.409 432.93C439.889 434.579 439.206 436.172 438.371 437.685C437.008 439.81 435.305 441.696 433.331 443.269C430.533 445.658 427.535 447.804 424.371 449.681C422.258 450.931 420.003 452.127 418.556 454.111C417.109 456.094 416.79 459.131 418.583 460.802Z" fill="black"/>
<path d="M439.098 457.935C441.329 457.135 443.473 456.111 445.497 454.878L455.734 449.104C456.659 448.505 457.689 448.088 458.77 447.874L459.993 457.011C460.299 459.253 460.462 461.888 458.77 463.39C458.166 463.872 457.474 464.232 456.732 464.449C453.017 465.733 449.009 465.76 445.076 465.883C432.998 466.27 420.798 467.683 408.896 465.563C407.443 465.305 405.867 464.884 404.99 463.729C403.992 462.371 404.277 460.401 405.242 459.022C406.299 457.711 407.645 456.662 409.175 455.958C412.204 454.328 415.35 452.942 418.495 451.549C418.689 451.434 418.919 451.396 419.14 451.441C419.446 451.543 419.541 451.916 419.622 452.229C420.173 454.457 421.966 456.216 424.011 457.269C424.038 457.269 434.574 459.375 439.098 457.935Z" fill="#BBBDC8"/>
<path opacity="0.1" d="M439.098 457.935C441.329 457.135 443.473 456.111 445.497 454.878L455.734 449.104C456.659 448.505 457.689 448.088 458.77 447.874L459.993 457.011C460.299 459.253 460.462 461.888 458.77 463.39C458.166 463.872 457.474 464.232 456.732 464.449C453.017 465.733 449.009 465.76 445.076 465.883C432.998 466.27 420.798 467.683 408.896 465.563C407.443 465.305 405.867 464.884 404.99 463.729C403.992 462.371 404.277 460.401 405.242 459.022C406.299 457.711 407.645 456.662 409.175 455.958C412.204 454.328 415.35 452.942 418.495 451.549C418.689 451.434 418.919 451.396 419.14 451.441C419.446 451.543 419.541 451.916 419.622 452.229C420.173 454.457 421.966 456.216 424.011 457.269C424.038 457.269 434.574 459.375 439.098 457.935Z" fill="black"/>
<path d="M425.376 470.312C426.878 471.67 429.174 471.636 431.211 471.487L440.497 470.808C447.875 470.264 455.503 469.653 462.011 466.141C462.7 465.826 463.31 465.362 463.797 464.782C464.315 463.894 464.584 462.883 464.579 461.855C465.458 451.793 467.458 441.861 470.543 432.244C474.619 419.439 480.732 406.818 480.651 393.415C480.651 393.089 480.651 392.736 480.651 392.444C480.535 388.246 479.795 384.095 479.34 379.918C478.586 372.928 478.66 365.883 478.715 358.859C478.657 356.106 478.848 353.352 479.285 350.633C479.713 348.425 481.323 346.211 480.338 344.268C478.429 340.498 471.507 339.112 467.785 338.976C462.772 338.8 457.84 340.111 452.997 341.415C451.522 341.816 449.98 342.244 448.866 343.283C447.372 344.682 446.944 346.877 446.89 348.921C446.631 357.99 451.855 366.427 452.27 375.482C452.344 377.112 452.27 378.878 453.221 380.237C453.848 380.977 454.529 381.669 455.259 382.309C457.296 384.544 457.358 387.913 457.215 390.943C457.154 392.165 457.086 393.388 457.004 394.611C455.895 410.93 452.598 427.026 447.202 442.467C446.682 444.116 445.999 445.709 445.164 447.222C443.801 449.347 442.098 451.234 440.124 452.806C437.326 455.196 434.328 457.341 431.164 459.219C429.051 460.469 426.796 461.664 425.349 463.648C423.902 465.631 423.583 468.641 425.376 470.312Z" fill="#FDA8A8"/>
<path d="M425.376 470.312C426.878 471.67 429.174 471.636 431.211 471.487L440.497 470.808C447.875 470.264 455.503 469.653 462.011 466.141C462.7 465.826 463.31 465.362 463.797 464.782C464.315 463.894 464.584 462.883 464.579 461.855C465.458 451.793 467.458 441.861 470.543 432.244C474.619 419.439 480.732 406.818 480.651 393.415C472.8 394.283 464.903 394.674 457.004 394.584C455.895 410.903 452.598 426.999 447.202 442.44C446.682 444.089 445.999 445.682 445.164 447.195C443.801 449.32 442.098 451.206 440.124 452.779C437.326 455.169 434.328 457.314 431.164 459.192C429.051 460.442 426.796 461.637 425.349 463.621C423.902 465.604 423.583 468.641 425.376 470.312Z" fill="#EEEFF3"/>
<path d="M445.891 467.445C448.122 466.646 450.266 465.621 452.29 464.388L462.527 458.614C463.452 458.015 464.482 457.598 465.563 457.385L466.786 466.521C467.092 468.763 467.255 471.399 465.563 472.9C464.959 473.382 464.267 473.742 463.526 473.96C459.81 475.243 455.802 475.271 451.869 475.393C439.791 475.78 427.591 477.193 415.689 475.074C414.236 474.815 412.66 474.394 411.784 473.239C410.785 471.881 411.07 469.911 412.035 468.532C413.092 467.221 414.438 466.173 415.968 465.468C418.998 463.838 422.143 462.452 425.288 461.06C425.482 460.945 425.712 460.906 425.933 460.951C426.239 461.053 426.334 461.427 426.416 461.739C426.966 463.967 428.759 465.726 430.804 466.779C430.831 466.779 441.367 468.885 445.891 467.445Z" fill="#BBBDC8"/>
<path d="M412.205 194.761C415.513 190.686 415.601 184.993 415.52 179.763C415.52 177.725 415.458 175.619 415.384 173.547V173.499C415.292 169.692 414.89 165.898 414.181 162.155C413.824 160.359 413.347 158.589 412.755 156.857C413.203 156.755 413.651 156.66 414.113 156.578C421.234 155.172 428.561 155.172 435.681 156.578C436.911 156.823 440.022 156.768 441.795 157.373C442.3 157.493 442.739 157.802 443.024 158.236C443.371 158.962 442.658 161.068 442.141 162.936C441.857 163.778 441.697 164.657 441.666 165.545C441.734 166.379 441.862 167.208 442.046 168.024C442.365 169.526 442.787 171.013 442.984 172.535C443.33 175.13 443.024 177.772 443.194 180.388C443.364 183.003 444.118 185.754 446.108 187.459C434.544 188.45 423.152 190.904 412.205 194.761Z" fill="#FDA8A8"/>
<path opacity="0.1" d="M444.757 167.725C443.853 167.8 442.956 167.888 442.039 167.99C432.991 168.956 424.062 170.822 415.384 173.561V173.513L414.181 162.169C414.181 161.489 414.181 160.81 414.181 160.097C414.181 158.935 414.147 157.76 414.12 156.592C421.241 155.186 428.567 155.186 435.688 156.592C436.917 156.836 440.029 156.782 441.802 157.386C441.802 158.494 441.802 159.601 441.842 160.708C441.887 161.462 441.989 162.212 442.148 162.95C442.473 164.784 443.389 166.461 444.757 167.725Z" fill="black"/>
<path d="M427.618 170.843C441.499 170.843 452.752 159.59 452.752 145.709C452.752 131.828 441.499 120.575 427.618 120.575C413.737 120.575 402.484 131.828 402.484 145.709C402.484 159.59 413.737 170.843 427.618 170.843Z" fill="#FDA8A8"/>
<path d="M405.541 240.478C401.078 224.685 405.153 207.722 415.812 195.251C418.182 192.472 420.567 189.619 423.678 187.955C427.38 185.985 431.762 185.917 435.953 185.876C439.655 185.876 443.473 185.876 446.876 187.35C451.475 189.313 454.647 193.579 457.323 197.812C460.177 202.322 462.758 207.206 463.193 212.532C463.424 215.691 462.867 218.897 463.335 222.042C463.933 226.03 466.154 229.603 467.065 233.529C467.56 235.648 467.662 237.843 467.982 240.003C468.463 242.958 469.162 245.873 470.074 248.725C476.823 271.135 486.065 292.718 497.626 313.068C501.023 319.066 504.657 324.996 506.939 331.497C507.972 334.439 508.719 337.611 507.877 340.641C506.471 345.667 500.119 348.622 495.371 346.455C495.547 347.014 495.511 347.617 495.27 348.151C495.03 348.685 494.601 349.111 494.067 349.349C492.938 349.859 491.703 350.092 490.466 350.029L448.513 351.143C447.411 351.17 446.315 351.318 445.246 351.584C440.314 352.848 442.168 354.981 441.639 356.76C440.993 358.934 437.875 358.757 435.701 358.119C436.034 361.291 436.109 365.17 432.013 366.094C430.95 366.309 429.852 366.272 428.807 365.985C421.374 364.071 413.666 363.45 406.023 364.151C403.224 364.409 400.025 364.722 397.953 362.793C396.391 361.359 395.983 359.077 395.718 356.971C391.54 323.685 400.133 290.352 406.587 257.467C407.456 253.032 407.144 245.845 405.84 241.511L405.541 240.478Z" fill="#F75842"/>
<path d="M461.243 217.538C462.228 220.378 463.457 223.17 463.79 226.159C464.055 228.55 463.736 230.968 463.878 233.366C464.139 236.028 464.688 238.654 465.516 241.198C466.823 246.146 468.436 251.008 470.345 255.756C471.256 257.895 472.309 260.253 471.575 262.46C470.841 264.668 468.566 266.033 467.914 268.227C467.234 270.544 468.593 272.983 470.325 274.674C472.057 276.365 474.224 277.568 475.827 279.368C477.573 281.331 478.545 283.838 479.774 286.161C481.52 289.234 483.522 292.154 485.759 294.89L493.971 305.548C494.483 306.316 495.155 306.965 495.941 307.45C498.659 308.863 501.505 306.017 504.27 304.733C507.938 302.987 512.231 304.013 516.286 304.305C520.342 304.597 525.226 303.544 526.673 299.754C527.152 298.215 527.252 296.584 526.965 294.999C526.329 289.578 524.762 284.309 522.332 279.422C520.851 276.447 519.044 273.601 518.114 270.415C517.353 267.827 517.203 265.103 516.599 262.474C515.994 259.845 514.928 257.332 514.072 254.764C507.999 236.518 512.564 216.553 510.601 197.424C509.874 190.366 507.72 182.629 501.647 178.954C498.04 176.774 493.706 176.434 489.42 176.237L487.484 176.149L484.366 175.992C479.856 175.768 475.331 175.598 470.936 176.556C464.755 177.915 457.316 182.718 457.072 189.619C456.806 199.099 458.218 208.55 461.243 217.538Z" fill="#5051F9"/>
<path opacity="0.1" d="M484.4 175.965C485.234 180.588 485.65 185.275 485.643 189.972C485.766 203.382 487.212 216.737 488.666 230.051L489.624 238.882C489.801 240.512 490.011 242.224 490.983 243.535C491.954 244.846 493.992 245.532 495.276 244.52C496.064 241.402 495.907 238.128 495.751 234.915C495.412 228.081 495.074 221.245 494.739 214.407C494.413 207.75 494.06 201.086 493.251 194.469C492.617 189.345 491.683 184.261 490.453 179.246C490.219 178.207 489.894 177.191 489.481 176.21L487.545 176.121L484.4 175.965Z" fill="black"/>
<path d="M440.015 181.712C435.851 181.114 431.49 180.809 427.536 182.256C423.759 183.648 420.743 186.508 418.026 189.517C416.174 191.456 414.642 193.678 413.489 196.1C411.172 201.425 412.076 207.566 413.489 213.204C417.34 228.733 424.989 243.712 437.264 253.962C441.001 256.998 444.979 259.724 449.158 262.114C454.593 265.3 460.204 268.227 466.216 270.068C467.893 270.585 469.68 271.019 471.399 270.653C473.117 270.286 474.741 268.893 474.795 267.134C464.945 261.598 456.114 254.444 447.345 247.325C444.941 245.471 442.69 243.427 440.613 241.212C437.502 237.713 435.308 233.488 432.291 229.908C429.574 226.695 426.178 223.985 424.14 220.31C422.861 217.8 422.005 215.096 421.606 212.308C420.601 206.622 420.411 200.583 422.666 195.264C424.921 189.945 430.091 185.577 435.865 185.672C438.826 185.72 441.645 186.895 444.376 188.043L461.562 195.298C461.352 195.203 462.547 192.221 462.493 191.806C462.33 190.509 462.099 190.489 461.134 189.504C459.491 187.86 456.936 186.705 454.851 185.747C450.125 183.698 445.128 182.339 440.015 181.712Z" fill="#5051F9"/>
<path d="M405.806 140.954C410.709 139.865 415.247 137.525 418.977 134.161L415.384 153.019C418.963 151.375 422.435 149.506 425.777 147.421C426.259 156.048 425.56 164.872 422.38 172.902C419.201 180.931 413.339 188.118 405.473 191.684C412.456 192.853 418.726 187.839 424.941 184.45C429.275 182.093 436.68 184.518 441.421 183.091C445.443 181.909 449.573 180.877 453.2 178.764C459.939 174.831 461.467 163.344 462.833 155.668C464.198 147.992 462.955 140.044 460.686 132.572C459.931 129.925 458.909 127.363 457.636 124.923C455.886 121.719 453.491 118.913 450.601 116.682C447.711 114.451 444.391 112.843 440.848 111.961C437.306 111.079 433.619 110.941 430.02 111.556C426.422 112.171 422.99 113.526 419.942 115.535C413.679 119.658 407.871 125.724 403.088 131.478C402.409 132.273 399.604 135.099 400.534 136.287C401.669 137.728 408.326 133.625 409.453 133.068C409.127 134.297 407.103 140.635 405.806 140.954Z" fill="#FFD566"/>
<g opacity="0.1">
<path d="M434.071 360.66C433.009 360.875 431.91 360.838 430.865 360.551C423.432 358.636 415.725 358.016 408.081 358.717C405.283 358.975 402.083 359.287 400.011 357.358C398.449 355.925 398.041 353.642 397.776 351.537C393.599 318.251 402.192 284.918 408.645 252.033C409.515 247.597 409.202 240.41 407.898 236.076L407.592 235.023C405.077 226.043 405.226 216.525 408.02 207.627C403.386 217.953 402.508 229.574 405.541 240.478L405.846 241.531C407.151 245.865 407.463 253.079 406.594 257.488C400.161 290.373 391.568 323.726 395.725 356.991C395.99 359.097 396.404 361.38 397.96 362.813C399.998 364.722 403.231 364.409 406.03 364.172C413.673 363.47 421.38 364.091 428.813 366.006C429.859 366.292 430.957 366.33 432.02 366.114C435.362 365.36 435.926 362.636 435.844 359.939C435.302 360.285 434.701 360.529 434.071 360.66Z" fill="black"/>
<path d="M497.422 341.021C497.598 341.579 497.562 342.183 497.322 342.717C497.081 343.25 496.653 343.677 496.118 343.915C494.989 344.425 493.755 344.657 492.518 344.594L450.565 345.708C449.463 345.736 448.367 345.884 447.297 346.15C442.365 347.413 444.22 349.546 443.69 351.326C443.045 353.5 439.927 353.323 437.753 352.685C437.957 354.621 438.059 356.815 437.182 358.445C439.091 358.73 441.143 358.479 441.652 356.76C442.162 355.042 440.327 352.848 445.259 351.584C446.329 351.318 447.425 351.17 448.527 351.143L490.453 350.029C491.69 350.092 492.924 349.859 494.053 349.349C494.588 349.111 495.016 348.685 495.257 348.151C495.497 347.617 495.533 347.014 495.357 346.455C500.112 348.622 506.457 345.667 507.863 340.641C508.075 339.879 508.194 339.094 508.217 338.304C505.676 341.347 501.077 342.706 497.422 341.021Z" fill="black"/>
</g>
<path d="M441.142 199.075C444.751 206.747 447.941 214.609 450.7 222.626C452.928 229.086 454.891 235.873 454.151 242.666C453.411 249.459 449.396 256.32 442.875 258.459C440.103 259.37 437.135 259.376 434.22 259.444C427.24 259.608 420.275 260.171 413.359 261.129C410.14 261.661 406.896 262.022 403.638 262.209C399.033 262.358 394.427 261.638 389.835 262.012C382.404 262.617 375.346 266.088 367.887 266.088C366.977 266.144 366.067 265.976 365.238 265.599C363.879 264.865 363.275 263.276 362.813 261.808C361.773 258.493 360.958 254.689 362.718 251.693C364.885 248.005 369.809 247.264 374.082 246.938C383.701 246.259 393.331 245.784 402.973 245.512C411.199 245.281 420.111 244.968 426.49 239.765C426.92 239.457 427.272 239.052 427.516 238.583C427.757 237.788 427.728 236.935 427.434 236.158C424.906 226.279 423.821 216.085 424.214 205.895C424.171 204.981 424.408 204.076 424.894 203.3C425.471 202.678 426.221 202.243 427.047 202.05C432.742 200.223 438.839 200.053 444.627 201.561" fill="#FDA8A8"/>
<path d="M424.045 205.888C423.059 206.227 422.201 206.86 421.586 207.702C421.857 204.869 421.491 202.009 421.545 199.156C421.599 196.303 422.129 193.328 423.929 191.114C426.219 188.288 430.111 187.275 433.752 187.18C439.037 187.038 444.505 188.573 448.377 192.173C450.87 194.507 452.488 197.623 452.963 201.004C453.085 201.935 453.492 205.426 452.521 206.024C451.672 206.554 448.445 204.727 447.406 204.435C439.689 202.167 431.421 202.681 424.045 205.888Z" fill="#F75842"/>
<path opacity="0.1" d="M321.308 45.5129C323.934 45.5129 326.063 43.384 326.063 40.7579C326.063 38.1317 323.934 36.0028 321.308 36.0028C318.682 36.0028 316.553 38.1317 316.553 40.7579C316.553 43.384 318.682 45.5129 321.308 45.5129Z" fill="#5051F9"/>
<path opacity="0.1" d="M353.235 137.218C355.861 137.218 357.99 135.089 357.99 132.463C357.99 129.837 355.861 127.708 353.235 127.708C350.609 127.708 348.48 129.837 348.48 132.463C348.48 135.089 350.609 137.218 353.235 137.218Z" fill="#5051F9"/>
<path opacity="0.1" d="M262.888 50.268C265.514 50.268 267.643 48.1391 267.643 45.513C267.643 42.8868 265.514 40.7579 262.888 40.7579C260.262 40.7579 258.133 42.8868 258.133 45.513C258.133 48.1391 260.262 50.268 262.888 50.268Z" fill="#5051F9"/>
<path opacity="0.1" d="M116.839 274.436C123.592 274.436 129.067 268.962 129.067 262.209C129.067 255.456 123.592 249.981 116.839 249.981C110.086 249.981 104.612 255.456 104.612 262.209C104.612 268.962 110.086 274.436 116.839 274.436Z" fill="#5051F9"/>
<path opacity="0.1" d="M609.33 72.6848C611.956 72.6848 614.085 70.5559 614.085 67.9298C614.085 65.3036 611.956 63.1747 609.33 63.1747C606.704 63.1747 604.575 65.3036 604.575 67.9298C604.575 70.5559 606.704 72.6848 609.33 72.6848Z" fill="#5051F9"/>
<path opacity="0.1" d="M614.764 148.087C623.393 148.087 630.388 141.092 630.388 132.463C630.388 123.834 623.393 116.839 614.764 116.839C606.135 116.839 599.14 123.834 599.14 132.463C599.14 141.092 606.135 148.087 614.764 148.087Z" fill="#5051F9"/>
<path opacity="0.1" d="M639.898 93.0638C642.525 93.0638 644.653 90.9348 644.653 88.3087C644.653 85.6825 642.525 83.5536 639.898 83.5536C637.272 83.5536 635.143 85.6825 635.143 88.3087C635.143 90.9348 637.272 93.0638 639.898 93.0638Z" fill="#5051F9"/>
<path opacity="0.1" d="M597.782 180.014C600.408 180.014 602.537 177.885 602.537 175.259C602.537 172.633 600.408 170.504 597.782 170.504C595.156 170.504 593.027 172.633 593.027 175.259C593.027 177.885 595.156 180.014 597.782 180.014Z" fill="#5051F9"/>
<path opacity="0.1" d="M311.798 83.5536C314.424 83.5536 316.553 81.4247 316.553 78.7985C316.553 76.1723 314.424 74.0434 311.798 74.0434C309.172 74.0434 307.043 76.1723 307.043 78.7985C307.043 81.4247 309.172 83.5536 311.798 83.5536Z" fill="#5051F9"/>
<path opacity="0.1" d="M133.822 324.025C136.448 324.025 138.577 321.896 138.577 319.27C138.577 316.644 136.448 314.515 133.822 314.515C131.196 314.515 129.067 316.644 129.067 319.27C129.067 321.896 131.196 324.025 133.822 324.025Z" fill="#5051F9"/>
<path opacity="0.1" d="M126.349 215.337C128.975 215.337 131.104 213.208 131.104 210.582C131.104 207.956 128.975 205.827 126.349 205.827C123.723 205.827 121.594 207.956 121.594 210.582C121.594 213.208 123.723 215.337 126.349 215.337Z" fill="#5051F9"/>
<path opacity="0.1" d="M387.2 40.7578C389.826 40.7578 391.955 38.6289 391.955 36.0028C391.955 33.3766 389.826 31.2477 387.2 31.2477C384.574 31.2477 382.445 33.3766 382.445 36.0028C382.445 38.6289 384.574 40.7578 387.2 40.7578Z" fill="#5051F9"/>
<path opacity="0.1" d="M402.823 83.5536C405.45 83.5536 407.579 81.4247 407.579 78.7985C407.579 76.1723 405.45 74.0434 402.823 74.0434C400.197 74.0434 398.068 76.1723 398.068 78.7985C398.068 81.4247 400.197 83.5536 402.823 83.5536Z" fill="#5051F9"/>
</g>
<defs>
<linearGradient id="paint0_linear_826_104" x1="261.231" y1="478.654" x2="261.231" y2="111.405" gradientUnits="userSpaceOnUse">
<stop stop-color="#808080" stop-opacity="0.25"/>
<stop offset="0.54" stop-color="#808080" stop-opacity="0.12"/>
<stop offset="1" stop-color="#808080" stop-opacity="0.1"/>
</linearGradient>
<linearGradient id="paint1_linear_826_104" x1="443.581" y1="476.215" x2="443.581" y2="109.367" gradientUnits="userSpaceOnUse">
<stop stop-color="#808080" stop-opacity="0.25"/>
<stop offset="0.54" stop-color="#808080" stop-opacity="0.12"/>
<stop offset="1" stop-color="#808080" stop-opacity="0.1"/>
</linearGradient>
<clipPath id="clip0_826_104">
<rect width="735" height="492.491" fill="white"/>
</clipPath>
</defs>
</svg>
