<svg width="44" height="44" viewBox="0 0 44 44" fill="none" xmlns="http://www.w3.org/2000/svg">
<g clip-path="url(#clip0_1010_200)">
<path d="M38.6633 0.0859032C36.7813 0.386685 34.2719 1.39215 31.5907 2.93044C30.5165 3.54059 30.5165 3.47184 31.6251 4.03903C31.9774 4.2195 32.579 4.56325 32.9571 4.80388C33.3266 5.0445 33.6618 5.24216 33.6962 5.24216C33.7305 5.24216 34.0399 5.08747 34.3922 4.907C34.736 4.71794 35.4837 4.36559 36.0508 4.12497C38.5688 3.04216 40.1415 2.77575 40.6915 3.32575C41.4133 4.03903 40.8891 6.13591 39.1532 9.49607C38.6118 10.5359 37.1938 12.9937 36.9962 13.2172C36.9876 13.2258 36.7126 12.8476 36.386 12.3578C33.636 8.22419 29.2532 5.51716 24.2516 4.85544C23.1258 4.70934 20.986 4.68356 19.9376 4.82106C16.1821 5.28513 12.8219 6.86638 10.1235 9.4445C8.53365 10.9656 7.49381 12.3578 6.56568 14.2054C5.32818 16.6719 4.82115 18.7 4.7524 21.5273C4.70084 23.4523 4.82975 24.664 5.27662 26.3828L5.56021 27.5086L5.04459 28.2562C2.05396 32.5703 0.223495 36.6094 0.034432 39.325C-0.163224 42.1695 1.46959 43.9914 4.21959 44C6.39381 44 9.85709 42.6852 13.3891 40.5023C24.6727 33.5328 38.3024 19.0609 42.5735 9.50466C44.0774 6.1445 44.3782 3.66091 43.4758 1.96794C43.1923 1.44372 42.5477 0.790591 42.0751 0.541372C41.2243 0.103091 39.7891 -0.0945657 38.6633 0.0859032ZM7.69146 31.7539C8.91178 33.5672 10.5274 35.1742 12.3579 36.3859C12.8477 36.7125 13.2258 36.9875 13.2172 36.9961C13.2001 37.0047 12.8047 37.2539 12.3321 37.5547C8.75709 39.7891 5.35396 41.1727 3.9274 40.9578C2.47506 40.743 2.75006 38.7062 4.76959 34.7187C5.50006 33.2836 6.94381 30.8344 7.04693 30.8687C7.08131 30.8859 7.3735 31.2812 7.69146 31.7539Z" fill="#5051F9"/>
<path d="M38.311 21.8281C33.7821 27.543 27.7321 33.6016 21.9399 38.2164L20.6337 39.2563L21.3469 39.3164C22.8938 39.4453 25.6352 39.0586 27.4829 38.4484C28.6173 38.0789 30.568 37.1336 31.5391 36.4805C35.4235 33.8766 38.0618 29.975 38.9727 25.4977C39.2391 24.1828 39.4024 22.086 39.2993 21.2695L39.2305 20.668L38.311 21.8281Z" fill="#5051F9"/>
</g>
<defs>
<clipPath id="clip0_1010_200">
<rect width="44" height="44" fill="white"/>
</clipPath>
</defs>
</svg>
